<?xml version="1.0" encoding="UTF-8"?>
<svg version="1.1" xmlns="http://www.w3.org/2000/svg" width="1024" height="1024">
<path d="M0 0 C0.83245301 -0.00346153 1.66490602 -0.00692307 2.52258489 -0.01048949 C5.3364838 -0.01848552 8.14987674 -0.00492594 10.96374989 0.00837994 C12.99161726 0.00707277 15.01948415 0.004448 17.04734832 0.00061244 C22.63880732 -0.00612196 28.23009519 0.00594065 33.82153237 0.02094662 C39.84403087 0.03386028 45.86651915 0.02952084 51.8890276 0.0272398 C62.32974437 0.0256641 72.77041496 0.03499991 83.21111584 0.05195332 C94.1636548 0.06969232 105.11617141 0.08124871 116.06872463 0.08451176 C117.08945971 0.08482109 117.08945971 0.08482109 118.13081569 0.08513666 C121.58655085 0.08615163 125.04228603 0.0870558 128.49802122 0.08791729 C152.98765536 0.09422186 177.47726027 0.11444322 201.96687794 0.14282513 C225.76114719 0.17036938 249.55540844 0.19162465 273.34969044 0.20434856 C274.08287731 0.20474314 274.81606419 0.20513772 275.57146884 0.20554426 C282.93429929 0.20949975 290.29712979 0.2133272 297.65996035 0.21706083 C312.65946818 0.22466988 327.65897549 0.23313364 342.65848255 0.24211407 C343.34816574 0.24252594 344.03784893 0.24293781 344.74843162 0.24336216 C390.81987597 0.27097342 436.89130328 0.3185724 482.96272755 0.36914349 C482.96272755 1.02914349 482.96272755 1.68914349 482.96272755 2.36914349 C483.62272755 2.36914349 484.28272755 2.36914349 484.96272755 2.36914349 C485.0121682 7.01390308 485.04846618 11.65850945 485.07259083 16.30346966 C485.08264796 17.88357493 485.09629539 19.46366159 485.11360645 21.04370403 C485.13786776 23.31499098 485.14921337 25.58603185 485.15804005 27.85742474 C485.16836262 28.5637756 485.17868519 29.27012646 485.18932056 29.99788189 C485.19016529 33.6911214 485.06993277 35.20833565 482.96272755 38.36914349 C482.30272755 38.36914349 481.64272755 38.36914349 480.96272755 38.36914349 C480.96272755 39.02914349 480.96272755 39.68914349 480.96272755 40.36914349 C477.82774463 42.22691114 475.58801322 42.57054825 471.96272755 42.36914349 C471.96272755 43.02914349 471.96272755 43.68914349 471.96272755 44.36914349 C469.32272755 44.36914349 466.68272755 44.36914349 463.96272755 44.36914349 C463.96272755 45.02914349 463.96272755 45.68914349 463.96272755 46.36914349 C463.10807911 46.50191692 462.25343067 46.63469036 461.3728838 46.77148724 C460.26815723 46.9480888 459.16343067 47.12469036 458.02522755 47.30664349 C456.37200489 47.56767864 456.37200489 47.56767864 454.6853838 47.83398724 C452.05845826 48.08759484 452.05845826 48.08759484 450.96272755 49.36914349 C448.96314391 49.40995132 446.96227501 49.41168705 444.96272755 49.36914349 C444.96272755 50.02914349 444.96272755 50.68914349 444.96272755 51.36914349 C442.98272755 51.36914349 441.00272755 51.36914349 438.96272755 51.36914349 C438.96272755 52.02914349 438.96272755 52.68914349 438.96272755 53.36914349 C436.98272755 53.36914349 435.00272755 53.36914349 432.96272755 53.36914349 C432.96272755 54.02914349 432.96272755 54.68914349 432.96272755 55.36914349 C427.64500604 56.611151 422.38071427 57.67748561 416.96272755 58.36914349 C416.96272755 59.02914349 416.96272755 59.68914349 416.96272755 60.36914349 C415.31272755 60.36914349 413.66272755 60.36914349 411.96272755 60.36914349 C411.96272755 61.02914349 411.96272755 61.68914349 411.96272755 62.36914349 C410.31272755 62.36914349 408.66272755 62.36914349 406.96272755 62.36914349 C406.96272755 63.02914349 406.96272755 63.68914349 406.96272755 64.36914349 C405.31272755 64.36914349 403.66272755 64.36914349 401.96272755 64.36914349 C401.96272755 65.02914349 401.96272755 65.68914349 401.96272755 66.36914349 C399.90120366 67.01808585 397.83846497 67.66316988 395.77522755 68.30664349 C394.62667286 68.66629192 393.47811817 69.02594036 392.2947588 69.39648724 C389.51919749 70.20670384 386.80585206 70.86048656 383.96272755 71.36914349 C383.96272755 72.02914349 383.96272755 72.68914349 383.96272755 73.36914349 C382.64272755 73.36914349 381.32272755 73.36914349 379.96272755 73.36914349 C379.96272755 74.02914349 379.96272755 74.68914349 379.96272755 75.36914349 C369.58915124 79.77688836 369.58915124 79.77688836 363.96272755 80.36914349 C363.96272755 81.02914349 363.96272755 81.68914349 363.96272755 82.36914349 C362.97272755 82.36914349 361.98272755 82.36914349 360.96272755 82.36914349 C360.96272755 83.02914349 360.96272755 83.68914349 360.96272755 84.36914349 C359.82384083 84.75006145 359.82384083 84.75006145 358.6619463 85.13867474 C357.66807911 85.48285442 356.67421192 85.82703411 355.65022755 86.18164349 C354.66409473 86.5180888 353.67796192 86.85453411 352.6619463 87.20117474 C350.04640814 88.33293437 348.88356442 89.35683819 346.96272755 91.36914349 C344.27522755 91.55664349 344.27522755 91.55664349 341.96272755 91.36914349 C341.96272755 92.02914349 341.96272755 92.68914349 341.96272755 93.36914349 C341.30272755 93.36914349 340.64272755 93.36914349 339.96272755 93.36914349 C339.96272755 94.02914349 339.96272755 94.68914349 339.96272755 95.36914349 C335.98084037 97.08682031 331.99793352 98.77951689 327.96272755 100.36914349 C327.96272755 101.02914349 327.96272755 101.68914349 327.96272755 102.36914349 C327.22409473 102.69785442 326.48546192 103.02656536 325.7244463 103.36523724 C318.77179097 106.62512264 313.11638454 110.35969361 307.33772755 115.41601849 C305.24139902 117.13997287 303.39754787 118.22898692 300.96272755 119.36914349 C300.44710255 119.90539349 299.93147755 120.44164349 299.40022755 120.99414349 C297.96272755 122.36914349 297.96272755 122.36914349 294.96272755 122.36914349 C294.96272755 123.02914349 294.96272755 123.68914349 294.96272755 124.36914349 C293.28304005 126.09570599 293.28304005 126.09570599 291.08772755 127.99414349 C290.36843067 128.62578411 289.6491338 129.25742474 288.90804005 129.90820599 C286.96272755 131.36914349 286.96272755 131.36914349 284.96272755 131.36914349 C284.96272755 132.02914349 284.96272755 132.68914349 284.96272755 133.36914349 C283.3885088 134.66601849 283.3885088 134.66601849 281.27522755 136.11914349 C278.48197866 138.12632764 276.2193836 140.04276555 274.08772755 142.74414349 C273.38647755 143.61039349 272.68522755 144.47664349 271.96272755 145.36914349 C271.30272755 145.36914349 270.64272755 145.36914349 269.96272755 145.36914349 C269.96272755 146.02914349 269.96272755 146.68914349 269.96272755 147.36914349 C269.30272755 147.36914349 268.64272755 147.36914349 267.96272755 147.36914349 C267.96272755 148.02914349 267.96272755 148.68914349 267.96272755 149.36914349 C267.30272755 149.36914349 266.64272755 149.36914349 265.96272755 149.36914349 C265.83897755 150.20445599 265.83897755 150.20445599 265.71272755 151.05664349 C264.72377213 154.10592268 263.11515289 156.02104312 260.96272755 158.36914349 C260.30272755 158.36914349 259.64272755 158.36914349 258.96272755 158.36914349 C258.85960255 158.96726849 258.75647755 159.56539349 258.65022755 160.18164349 C257.86144786 162.69139702 256.79255669 163.53931435 254.96272755 165.36914349 C254.24825112 167.4724724 254.24825112 167.4724724 253.96272755 169.36914349 C253.30272755 169.36914349 252.64272755 169.36914349 251.96272755 169.36914349 C251.96272755 170.02914349 251.96272755 170.68914349 251.96272755 171.36914349 C251.30272755 171.36914349 250.64272755 171.36914349 249.96272755 171.36914349 C249.84671192 171.93117474 249.7306963 172.49320599 249.61116505 173.07226849 C248.88695424 175.63754533 247.82716386 177.76045862 246.58772755 180.11914349 C244.36763846 184.456361 242.57902656 188.77545154 240.96272755 193.36914349 C240.30272755 193.36914349 239.64272755 193.36914349 238.96272755 193.36914349 C238.96272755 195.01914349 238.96272755 196.66914349 238.96272755 198.36914349 C238.30272755 198.36914349 237.64272755 198.36914349 236.96272755 198.36914349 C236.90214161 199.22379192 236.84155567 200.07844036 236.7791338 200.95898724 C236.69534473 202.0637138 236.61155567 203.16844036 236.52522755 204.30664349 C236.44401661 205.40879192 236.36280567 206.51094036 236.2791338 207.64648724 C235.96272755 210.36914349 235.96272755 210.36914349 234.96272755 211.36914349 C234.72442716 213.99927367 234.54002767 216.60856743 234.40022755 219.24414349 C234.33545216 220.34435833 234.33545216 220.34435833 234.26936817 221.46679974 C233.92974353 227.38597207 234.05232573 233.20181258 234.33772755 239.11914349 C234.36866505 239.90547161 234.39960255 240.69179974 234.43147755 241.50195599 C234.73715423 247.63586811 236.00423236 252.70665685 238.08772755 258.49414349 C238.94200779 261.30106429 239.13394321 263.45847722 238.96272755 266.36914349 C239.62272755 266.36914349 240.28272755 266.36914349 240.96272755 266.36914349 C242.96272755 269.36914349 242.96272755 269.36914349 242.96272755 273.36914349 C243.62272755 273.36914349 244.28272755 273.36914349 244.96272755 273.36914349 C246.20194056 276.34325473 247.26331159 279.22177167 247.96272755 282.36914349 C248.62272755 282.36914349 249.28272755 282.36914349 249.96272755 282.36914349 C249.96272755 283.02914349 249.96272755 283.68914349 249.96272755 284.36914349 C250.62272755 284.36914349 251.28272755 284.36914349 251.96272755 284.36914349 C251.96272755 285.35914349 251.96272755 286.34914349 251.96272755 287.36914349 C252.62272755 287.36914349 253.28272755 287.36914349 253.96272755 287.36914349 C254.29272755 288.68914349 254.62272755 290.00914349 254.96272755 291.36914349 C255.62272755 291.36914349 256.28272755 291.36914349 256.96272755 291.36914349 C256.96272755 292.02914349 256.96272755 292.68914349 256.96272755 293.36914349 C257.62272755 293.36914349 258.28272755 293.36914349 258.96272755 293.36914349 C260.65005032 295.35174774 262.31638812 297.35237769 263.96272755 299.36914349 C264.62272755 299.69914349 265.28272755 300.02914349 265.96272755 300.36914349 C265.96272755 301.02914349 265.96272755 301.68914349 265.96272755 302.36914349 C266.62272755 302.36914349 267.28272755 302.36914349 267.96272755 302.36914349 C267.96272755 303.02914349 267.96272755 303.68914349 267.96272755 304.36914349 C270.29486903 305.57542356 272.45914893 306.53461728 274.96272755 307.36914349 C274.96272755 308.02914349 274.96272755 308.68914349 274.96272755 309.36914349 C275.62272755 309.36914349 276.28272755 309.36914349 276.96272755 309.36914349 C276.96272755 310.02914349 276.96272755 310.68914349 276.96272755 311.36914349 C277.92179005 311.70945599 277.92179005 311.70945599 278.90022755 312.05664349 C283.09593016 313.85480175 287.00173311 316.1081837 290.96272755 318.36914349 C290.96272755 319.02914349 290.96272755 319.68914349 290.96272755 320.36914349 C292.28272755 320.36914349 293.60272755 320.36914349 294.96272755 320.36914349 C294.96272755 321.02914349 294.96272755 321.68914349 294.96272755 322.36914349 C296.28272755 322.36914349 297.60272755 322.36914349 298.96272755 322.36914349 C298.96272755 323.02914349 298.96272755 323.68914349 298.96272755 324.36914349 C301.27272755 324.69914349 303.58272755 325.02914349 305.96272755 325.36914349 C305.96272755 326.02914349 305.96272755 326.68914349 305.96272755 327.36914349 C307.61272755 327.36914349 309.26272755 327.36914349 310.96272755 327.36914349 C310.96272755 328.02914349 310.96272755 328.68914349 310.96272755 329.36914349 C312.94272755 329.36914349 314.92272755 329.36914349 316.96272755 329.36914349 C318.2592262 331.96214079 318.11111889 333.87725904 318.1397295 336.78100872 C318.15256474 337.91235744 318.16539997 339.04370617 318.17862415 340.20933819 C318.18970455 342.04994572 318.18970455 342.04994572 318.2010088 343.92773724 C318.20908054 345.18296688 318.21715229 346.43819653 318.22546864 347.73146343 C318.23931748 350.39043155 318.25033223 353.0492753 318.25789356 355.70825481 C318.26897233 359.11604422 318.30339041 362.52318319 318.34306526 365.93074226 C318.37546774 369.17967637 318.38000423 372.42866615 318.3885088 375.67773724 C318.40601688 376.90278469 318.42352497 378.12783215 318.44156361 379.39000225 C318.43863804 380.52450314 318.43571247 381.65900402 318.43269825 382.82788372 C318.43856449 383.82778835 318.44443073 384.82769299 318.45047474 385.85789776 C317.96272755 388.36914349 317.96272755 388.36914349 316.50281239 390.19220257 C312.653238 391.97589165 309.04565474 391.77840787 304.85139942 391.74145794 C303.93065128 391.7451086 303.00990314 391.74875927 302.06125355 391.75252056 C299.01780724 391.76062624 295.97489331 391.74701562 292.93147755 391.73242474 C290.81685353 391.73190613 288.70222902 391.73242384 286.58760548 391.73393536 C282.15576957 391.73384563 277.72411556 391.72341561 273.29231739 391.70532513 C267.60926395 391.68263808 261.92647634 391.68209388 256.24339008 391.68884277 C251.87682702 391.692183 247.51032464 391.68555161 243.14377308 391.67571354 C241.04818508 391.6718622 238.95259033 391.67071305 236.8569994 391.67229939 C233.92922046 391.67266992 231.00178331 391.66005306 228.07405567 391.64380169 C227.20640079 391.64627911 226.33874592 391.64875652 225.44479847 391.65130901 C224.64573582 391.64422421 223.84667316 391.6371394 223.02339649 391.6298399 C222.33171627 391.62778703 221.64003605 391.62573416 220.92739582 391.62361908 C217.12540328 391.13116225 214.38877662 389.28040237 211.96272755 386.36914349 C211.96272755 385.70914349 211.96272755 385.04914349 211.96272755 384.36914349 C211.38522755 384.25570599 210.80772755 384.14226849 210.21272755 384.02539349 C207.05039019 383.10304509 204.67721446 381.34918938 201.96272755 379.52539349 C199.95100785 378.36236804 198.23160055 377.81481497 195.96272755 377.36914349 C195.96272755 376.70914349 195.96272755 376.04914349 195.96272755 375.36914349 C194.64272755 375.36914349 193.32272755 375.36914349 191.96272755 375.36914349 C191.96272755 374.70914349 191.96272755 374.04914349 191.96272755 373.36914349 C191.28210255 373.43101849 190.60147755 373.49289349 189.90022755 373.55664349 C186.84586002 373.36168386 184.87954455 372.45333435 182.14241505 371.16992474 C177.60786307 369.5040051 172.72921422 369.03441667 167.96272755 368.36914349 C167.96272755 367.70914349 167.96272755 367.04914349 167.96272755 366.36914349 C164.33272755 366.36914349 160.70272755 366.36914349 156.96272755 366.36914349 C156.96272755 365.70914349 156.96272755 365.04914349 156.96272755 364.36914349 C152.01272755 364.36914349 147.06272755 364.36914349 141.96272755 364.36914349 C141.96272755 363.70914349 141.96272755 363.04914349 141.96272755 362.36914349 C134.28726343 362.4764996 126.61189173 362.58910298 118.93660545 362.70848274 C115.37299786 362.76374376 111.80938212 362.81716867 108.24568653 362.86645794 C104.1525751 362.92314881 100.05962144 362.98771666 95.9666338 363.05273724 C94.03854626 363.07780598 94.03854626 363.07780598 92.07150745 363.10338116 C90.89035862 363.12332638 89.70920979 363.1432716 88.49226856 363.16382122 C87.44636051 363.1793655 86.40045246 363.19490978 85.32285023 363.2109251 C83.00632057 363.10614173 83.00632057 363.10614173 81.96272755 364.36914349 C79.61285493 364.60442121 77.25716716 364.78300765 74.90022755 364.93164349 C72.9647002 365.05732708 72.9647002 365.05732708 70.9900713 365.18554974 C69.99104786 365.24613567 68.99202442 365.30672161 67.96272755 365.36914349 C67.96272755 365.69914349 67.96272755 366.02914349 67.96272755 366.36914349 C64.00272755 366.36914349 60.04272755 366.36914349 55.96272755 366.36914349 C55.96272755 367.02914349 55.96272755 367.68914349 55.96272755 368.36914349 C55.17768848 368.4787138 54.39264942 368.58828411 53.5838213 368.70117474 C46.62114584 369.68612269 46.62114584 369.68612269 40.02522755 371.99414349 C37.00448633 373.35039464 35.21826158 373.66510113 31.96272755 373.36914349 C31.96272755 374.02914349 31.96272755 374.68914349 31.96272755 375.36914349 C31.40585255 375.59988567 30.84897755 375.83062786 30.27522755 376.06836224 C25.40865645 378.14816374 20.98844477 380.46704627 16.5916338 383.41601849 C14.96272755 384.36914349 14.96272755 384.36914349 12.96272755 384.36914349 C12.96272755 385.02914349 12.96272755 385.68914349 12.96272755 386.36914349 C9.08454943 390.35324457 5.68836072 391.00522522 0.33894825 391.10864544 C-0.40375411 391.1371499 -1.14645647 391.16565435 -1.91166496 391.19502258 C-4.28692126 391.27731313 -6.66097035 391.32787147 -9.03727245 391.36914349 C-9.79584671 391.38430885 -10.55442097 391.39947422 -11.33598232 391.41509914 C-16.90967612 391.51667376 -22.48231061 391.53466929 -28.0568037 391.53711224 C-29.81654416 391.54033609 -31.57628435 391.54370095 -33.33602428 391.5471983 C-36.9839239 391.55312166 -40.63180003 391.55504466 -44.27970409 391.55444622 C-48.95234381 391.55434351 -53.62483528 391.56813676 -58.29743958 391.58521843 C-61.91335275 391.59631568 -65.52922935 391.59836634 -69.14515781 391.59783649 C-70.86953982 391.5990146 -72.59392282 391.60342684 -74.31828785 391.61116886 C-76.71536646 391.62094795 -79.11211251 391.61810205 -81.50919628 391.61206341 C-82.2161665 391.61768291 -82.92313671 391.62330242 -83.65153027 391.62909222 C-87.28292115 391.60580421 -89.94799652 391.35827881 -93.03727245 389.36914349 C-93.08356536 381.84145569 -93.1191261 374.31378261 -93.1408968 366.78598499 C-93.15134443 363.29070421 -93.16552129 359.79552065 -93.18815136 356.30029583 C-93.21399198 352.28417293 -93.22373711 348.26815252 -93.23258495 344.25195599 C-93.24290752 342.99359936 -93.25323009 341.73524273 -93.26386547 340.43875408 C-93.26401653 339.27770153 -93.26416759 338.11664898 -93.26432323 336.92041302 C-93.26876446 335.89449047 -93.27320568 334.86856792 -93.27778149 333.81155682 C-93.03727245 331.36914349 -93.03727245 331.36914349 -91.03727245 329.36914349 C-89.71727245 329.36914349 -88.39727245 329.36914349 -87.03727245 329.36914349 C-87.03727245 328.70914349 -87.03727245 328.04914349 -87.03727245 327.36914349 C-86.22903027 327.11519817 -85.42078808 326.86125286 -84.5880537 326.59961224 C-83.51942089 326.25543255 -82.45078808 325.91125286 -81.34977245 325.55664349 C-80.29403027 325.22019817 -79.23828808 324.88375286 -78.1505537 324.53711224 C-75.01788733 323.47069225 -75.01788733 323.47069225 -72.3302412 321.73242474 C-70.03727245 320.36914349 -70.03727245 320.36914349 -67.03727245 320.36914349 C-67.03727245 319.70914349 -67.03727245 319.04914349 -67.03727245 318.36914349 C-65.71727245 318.36914349 -64.39727245 318.36914349 -63.03727245 318.36914349 C-63.03727245 317.70914349 -63.03727245 317.04914349 -63.03727245 316.36914349 C-61.43353936 315.72223426 -59.8292694 315.07665585 -58.22477245 314.43164349 C-57.33145214 314.07199505 -56.43813183 313.71234661 -55.5177412 313.34179974 C-53.71018156 312.63300863 -51.87919836 311.98311879 -50.03727245 311.36914349 C-50.03727245 310.70914349 -50.03727245 310.04914349 -50.03727245 309.36914349 C-49.04727245 309.36914349 -48.05727245 309.36914349 -47.03727245 309.36914349 C-47.03727245 308.70914349 -47.03727245 308.04914349 -47.03727245 307.36914349 C-44.06316121 306.12993047 -41.18464427 305.06855945 -38.03727245 304.36914349 C-38.03727245 303.70914349 -38.03727245 303.04914349 -38.03727245 302.36914349 C-37.37727245 302.36914349 -36.71727245 302.36914349 -36.03727245 302.36914349 C-36.03727245 301.70914349 -36.03727245 301.04914349 -36.03727245 300.36914349 C-35.04727245 300.36914349 -34.05727245 300.36914349 -33.03727245 300.36914349 C-33.03727245 299.70914349 -33.03727245 299.04914349 -33.03727245 298.36914349 C-32.04727245 298.36914349 -31.05727245 298.36914349 -30.03727245 298.36914349 C-30.03727245 297.70914349 -30.03727245 297.04914349 -30.03727245 296.36914349 C-28.20914745 294.78320599 -28.20914745 294.78320599 -25.78727245 292.99414349 C-23.29164425 291.14281146 -21.03801499 289.36990472 -18.86539745 287.14258099 C-17.03727245 285.36914349 -17.03727245 285.36914349 -15.03727245 285.36914349 C-15.03727245 284.70914349 -15.03727245 284.04914349 -15.03727245 283.36914349 C-14.37727245 283.36914349 -13.71727245 283.36914349 -13.03727245 283.36914349 C-12.77945995 282.78133099 -12.52164745 282.19351849 -12.25602245 281.58789349 C-10.57179406 278.52173411 -8.23246495 276.51720429 -5.69352245 274.15039349 C-3.99531928 272.32402403 -3.03410917 270.6419312 -2.03727245 268.36914349 C-1.37727245 268.36914349 -0.71727245 268.36914349 -0.03727245 268.36914349 C-0.03727245 267.70914349 -0.03727245 267.04914349 -0.03727245 266.36914349 C0.62272755 266.36914349 1.28272755 266.36914349 1.96272755 266.36914349 C1.96272755 265.04914349 1.96272755 263.72914349 1.96272755 262.36914349 C2.62272755 262.36914349 3.28272755 262.36914349 3.96272755 262.36914349 C3.96272755 261.70914349 3.96272755 261.04914349 3.96272755 260.36914349 C4.62272755 260.36914349 5.28272755 260.36914349 5.96272755 260.36914349 C6.29272755 258.38914349 6.62272755 256.40914349 6.96272755 254.36914349 C7.62272755 254.36914349 8.28272755 254.36914349 8.96272755 254.36914349 C8.96272755 253.04914349 8.96272755 251.72914349 8.96272755 250.36914349 C9.62272755 250.36914349 10.28272755 250.36914349 10.96272755 250.36914349 C10.96272755 249.04914349 10.96272755 247.72914349 10.96272755 246.36914349 C11.62272755 246.36914349 12.28272755 246.36914349 12.96272755 246.36914349 C12.96272755 245.04914349 12.96272755 243.72914349 12.96272755 242.36914349 C13.62272755 242.36914349 14.28272755 242.36914349 14.96272755 242.36914349 C15.02331348 241.65887005 15.08389942 240.94859661 15.1463213 240.21679974 C15.23011036 239.29769817 15.31389942 238.37859661 15.40022755 237.43164349 C15.48143848 236.51512005 15.56264942 235.59859661 15.6463213 234.65429974 C15.96272755 232.36914349 15.96272755 232.36914349 16.96272755 231.36914349 C17.23148697 227.11681335 17.23420915 222.85820206 17.25789356 218.59839153 C17.27491142 216.47115947 17.31874248 214.3455633 17.36311817 212.21875286 C17.44357864 205.0087952 17.07939965 198.89194409 13.82674122 192.28491497 C12.96272755 190.36914349 12.96272755 190.36914349 12.96272755 187.36914349 C12.30272755 187.36914349 11.64272755 187.36914349 10.96272755 187.36914349 C10.30272755 185.71914349 9.64272755 184.06914349 8.96272755 182.36914349 C8.30272755 182.36914349 7.64272755 182.36914349 6.96272755 182.36914349 C6.86991505 181.44101849 6.86991505 181.44101849 6.77522755 180.49414349 C6.16440856 178.15235239 6.16440856 178.15235239 3.77522755 177.36914349 C2.84710255 177.03914349 1.91897755 176.70914349 0.96272755 176.36914349 C-1.04982028 175.05482654 -3.05037514 173.72192464 -5.03727245 172.36914349 C-8.30762708 170.37950527 -10.5470192 170.17890623 -14.34977245 170.39258099 C-15.41244335 170.44438519 -16.47511425 170.49618938 -17.5699873 170.54956341 C-18.7141914 170.61377483 -19.8583955 170.67798626 -21.03727245 170.74414349 C-31.16469782 171.21163748 -41.27363109 171.51533199 -51.41227245 171.55664349 C-52.59949902 171.56937298 -53.78672558 171.58210247 -55.0099287 171.5952177 C-56.11981152 171.5966679 -57.22969433 171.5981181 -58.37320995 171.59961224 C-59.3482246 171.60372112 -60.32323925 171.60783001 -61.3277998 171.61206341 C-64.32168129 171.34364459 -66.39498342 170.80675097 -69.03727245 169.36914349 C-69.69727245 168.04914349 -70.35727245 166.72914349 -71.03727245 165.36914349 C-82.58727245 165.03914349 -94.13727245 164.70914349 -106.03727245 164.36914349 C-106.03727245 163.70914349 -106.03727245 163.04914349 -106.03727245 162.36914349 C-110.98727245 162.36914349 -115.93727245 162.36914349 -121.03727245 162.36914349 C-121.03727245 161.70914349 -121.03727245 161.04914349 -121.03727245 160.36914349 C-121.89192089 160.38074505 -122.74656933 160.39234661 -123.6271162 160.40429974 C-124.73184277 160.41332317 -125.83656933 160.42234661 -126.97477245 160.43164349 C-128.07692089 160.44324505 -129.17906933 160.45484661 -130.3146162 160.46679974 C-133.03727245 160.36914349 -133.03727245 160.36914349 -134.03727245 159.36914349 C-136.55923213 158.96971172 -139.06690901 158.618345 -141.59977245 158.30664349 C-142.31069042 158.21576458 -143.02160839 158.12488567 -143.75406933 158.03125286 C-145.51465648 157.80674846 -147.27590723 157.58745951 -149.03727245 157.36914349 C-149.03727245 156.70914349 -149.03727245 156.04914349 -149.03727245 155.36914349 C-151.67727245 155.36914349 -154.31727245 155.36914349 -157.03727245 155.36914349 C-157.03727245 154.70914349 -157.03727245 154.04914349 -157.03727245 153.36914349 C-159.01727245 153.36914349 -160.99727245 153.36914349 -163.03727245 153.36914349 C-163.03727245 152.70914349 -163.03727245 152.04914349 -163.03727245 151.36914349 C-165.01727245 151.36914349 -166.99727245 151.36914349 -169.03727245 151.36914349 C-169.03727245 150.70914349 -169.03727245 150.04914349 -169.03727245 149.36914349 C-169.75914745 149.41039349 -170.48102245 149.45164349 -171.22477245 149.49414349 C-174.28875766 149.35796637 -176.22165618 148.53659414 -179.03727245 147.36914349 C-181.02970495 146.99321283 -183.02913986 146.64934803 -185.03727245 146.36914349 C-185.03727245 145.70914349 -185.03727245 145.04914349 -185.03727245 144.36914349 C-186.68727245 144.36914349 -188.33727245 144.36914349 -190.03727245 144.36914349 C-190.03727245 143.70914349 -190.03727245 143.04914349 -190.03727245 142.36914349 C-191.35727245 142.36914349 -192.67727245 142.36914349 -194.03727245 142.36914349 C-194.03727245 141.70914349 -194.03727245 141.04914349 -194.03727245 140.36914349 C-195.35727245 140.36914349 -196.67727245 140.36914349 -198.03727245 140.36914349 C-198.03727245 139.70914349 -198.03727245 139.04914349 -198.03727245 138.36914349 C-199.89352245 138.18351849 -199.89352245 138.18351849 -201.78727245 137.99414349 C-204.91349215 137.61168044 -207.32606482 137.06364826 -210.03727245 135.36914349 C-210.03727245 134.70914349 -210.03727245 134.04914349 -210.03727245 133.36914349 C-211.02727245 133.36914349 -212.01727245 133.36914349 -213.03727245 133.36914349 C-213.03727245 132.70914349 -213.03727245 132.04914349 -213.03727245 131.36914349 C-213.5683662 131.26730755 -214.09945995 131.16547161 -214.64664745 131.06054974 C-217.73945085 130.16606248 -220.42178813 128.77053222 -223.28727245 127.30664349 C-224.3649287 126.75879192 -225.44258495 126.21094036 -226.55289745 125.64648724 C-227.3727412 125.2249638 -228.19258495 124.80344036 -229.03727245 124.36914349 C-229.03727245 123.70914349 -229.03727245 123.04914349 -229.03727245 122.36914349 C-229.5889912 122.26472942 -230.14070995 122.16031536 -230.70914745 122.05273724 C-233.53315755 121.22353964 -235.76282161 119.94114699 -238.28727245 118.43164349 C-239.1793037 117.90699505 -240.07133495 117.38234661 -240.99039745 116.84179974 C-241.6658662 116.35582317 -242.34133495 115.86984661 -243.03727245 115.36914349 C-243.03727245 114.70914349 -243.03727245 114.04914349 -243.03727245 113.36914349 C-244.02727245 113.36914349 -245.01727245 113.36914349 -246.03727245 113.36914349 C-246.03727245 112.70914349 -246.03727245 112.04914349 -246.03727245 111.36914349 C-247.02727245 111.36914349 -248.01727245 111.36914349 -249.03727245 111.36914349 C-250.39462387 110.0602689 -251.72232733 108.72061486 -253.03727245 107.36914349 C-254.87947962 106.03910167 -256.75006553 104.76868755 -258.64664745 103.51758099 C-259.33500683 102.94910442 -259.33500683 102.94910442 -260.03727245 102.36914349 C-260.03727245 101.70914349 -260.03727245 101.04914349 -260.03727245 100.36914349 C-260.69727245 100.36914349 -261.35727245 100.36914349 -262.03727245 100.36914349 C-262.03727245 99.70914349 -262.03727245 99.04914349 -262.03727245 98.36914349 C-262.60574902 98.2930888 -263.17422558 98.21703411 -263.7599287 98.13867474 C-266.82144746 97.10416497 -268.26527708 95.39633443 -270.47477245 93.05664349 C-272.95259847 90.48068574 -275.29746169 88.16205409 -278.09977245 85.93164349 C-278.73914745 85.41601849 -279.37852245 84.90039349 -280.03727245 84.36914349 C-280.03727245 83.70914349 -280.03727245 83.04914349 -280.03727245 82.36914349 C-280.69727245 82.36914349 -281.35727245 82.36914349 -282.03727245 82.36914349 C-282.03727245 81.70914349 -282.03727245 81.04914349 -282.03727245 80.36914349 C-282.69727245 80.36914349 -283.35727245 80.36914349 -284.03727245 80.36914349 C-285.55289745 78.79492474 -285.55289745 78.79492474 -287.28727245 76.68164349 C-289.53497629 74.01455675 -291.71706609 71.69206457 -294.47477245 69.55664349 C-295.74320995 68.47383099 -295.74320995 68.47383099 -297.03727245 67.36914349 C-297.03727245 66.37914349 -297.03727245 65.38914349 -297.03727245 64.36914349 C-297.69727245 64.36914349 -298.35727245 64.36914349 -299.03727245 64.36914349 C-300.4396162 62.68945599 -300.4396162 62.68945599 -301.97477245 60.49414349 C-303.93675184 57.69418314 -305.12821388 56.30851587 -308.03727245 54.36914349 C-308.03727245 53.37914349 -308.03727245 52.38914349 -308.03727245 51.36914349 C-308.69727245 51.36914349 -309.35727245 51.36914349 -310.03727245 51.36914349 C-310.53227245 49.88414349 -310.53227245 49.88414349 -311.03727245 48.36914349 C-311.69727245 48.03914349 -312.35727245 47.70914349 -313.03727245 47.36914349 C-313.03727245 46.04914349 -313.03727245 44.72914349 -313.03727245 43.36914349 C-313.69727245 43.36914349 -314.35727245 43.36914349 -315.03727245 43.36914349 C-315.32890175 38.41144552 -315.166673 35.34107495 -312.03727245 31.36914349 C-311.37727245 31.36914349 -310.71727245 31.36914349 -310.03727245 31.36914349 C-310.03727245 30.70914349 -310.03727245 30.04914349 -310.03727245 29.36914349 C-308.38727245 29.36914349 -306.73727245 29.36914349 -305.03727245 29.36914349 C-305.03727245 28.70914349 -305.03727245 28.04914349 -305.03727245 27.36914349 C-227.48727245 27.36914349 -149.93727245 27.36914349 -70.03727245 27.36914349 C-69.70727245 25.05914349 -69.37727245 22.74914349 -69.03727245 20.36914349 C-49.23727245 20.36914349 -29.43727245 20.36914349 -9.03727245 20.36914349 C-9.69727245 19.04914349 -10.35727245 17.72914349 -11.03727245 16.36914349 C-11.3380537 13.24023724 -11.3380537 13.24023724 -11.34977245 9.80664349 C-11.36653027 8.67097942 -11.38328808 7.53531536 -11.4005537 6.36523724 C-11.03727245 3.36914349 -11.03727245 3.36914349 -10.0168969 1.70495909 C-6.90440944 -0.39529246 -3.62736922 -0.0366575 0 0 Z M-6.03727245 33.36914349 C-6.01664745 35.28726849 -5.99602245 37.20539349 -5.97477245 39.18164349 C-5.93766637 42.63250934 -5.94220754 45.08394873 -7.03727245 48.36914349 C-7.12567333 50.22509077 -7.15489949 52.08409465 -7.15079784 53.94214153 C-7.15072231 55.0830978 -7.15064678 56.22405407 -7.15056896 57.39958477 C-7.14540768 58.63090633 -7.14024639 59.8622279 -7.1349287 61.13086224 C-7.13351376 62.39179195 -7.13209881 63.65272167 -7.13064098 64.95186138 C-7.1259882 68.30066057 -7.11700587 71.6493916 -7.105937 74.99817181 C-7.09569933 78.41674492 -7.09113831 81.83532508 -7.08610058 85.25390911 C-7.07506345 91.9590061 -7.05831932 98.66407086 -7.03727245 105.36914349 C-6.04727245 104.87414349 -6.04727245 104.87414349 -5.03727245 104.36914349 C-5.01665752 103.60572643 -4.99604259 102.84230938 -4.97480297 102.05575848 C-4.77850354 94.84642898 -4.57342763 87.63742705 -4.35859394 80.42862797 C-4.24846382 76.72288024 -4.14167922 73.01710015 -4.04264355 69.31103802 C-3.94686822 65.73165768 -3.84217006 62.15263766 -3.73139095 58.57369137 C-3.69076355 57.21110972 -3.65330256 55.84842971 -3.61912441 54.48567104 C-3.57054694 52.57078046 -3.50946509 50.65621965 -3.44791698 48.74170208 C-3.41682842 47.65360241 -3.38573986 46.56550274 -3.35370922 45.44443035 C-3.03727245 42.36914349 -3.03727245 42.36914349 -1.03727245 36.36914349 C38.56272755 36.36914349 78.16272755 36.36914349 118.96272755 36.36914349 C118.96272755 36.03914349 118.96272755 35.70914349 118.96272755 35.36914349 C84.31272755 35.03914349 49.66272755 34.70914349 13.96272755 34.36914349 C13.96272755 34.03914349 13.96272755 33.70914349 13.96272755 33.36914349 C7.36272755 33.36914349 0.76272755 33.36914349 -6.03727245 33.36914349 Z M51.96272755 33.36914349 C51.96272755 33.69914349 51.96272755 34.02914349 51.96272755 34.36914349 C59.22272755 34.36914349 66.48272755 34.36914349 73.96272755 34.36914349 C73.96272755 34.03914349 73.96272755 33.70914349 73.96272755 33.36914349 C66.70272755 33.36914349 59.44272755 33.36914349 51.96272755 33.36914349 Z M215.96272755 33.36914349 C215.96272755 33.69914349 215.96272755 34.02914349 215.96272755 34.36914349 C233.78272755 34.36914349 251.60272755 34.36914349 269.96272755 34.36914349 C269.96272755 34.03914349 269.96272755 33.70914349 269.96272755 33.36914349 C252.14272755 33.36914349 234.32272755 33.36914349 215.96272755 33.36914349 Z M-70.03727245 97.36914349 C-70.93109029 102.90103797 -71.30511235 108.35548975 -71.53727245 113.95117474 C-71.62056089 115.78776531 -71.70389556 117.6243538 -71.78727245 119.46094036 C-71.91365082 122.33580128 -72.03852404 125.21072091 -72.16227245 128.08569622 C-72.2835089 130.8743714 -72.41014022 133.66276309 -72.53727245 136.45117474 C-72.57272167 137.31571774 -72.60817089 138.18026073 -72.64469433 139.07100201 C-72.92419943 145.14299743 -72.92419943 145.14299743 -74.03727245 147.36914349 C-77.8674813 148.46510039 -81.58864646 148.49800416 -85.55289745 148.50195599 C-86.80457714 148.50324505 -88.05625683 148.50453411 -89.3458662 148.50586224 C-90.64653027 148.50199505 -91.94719433 148.49812786 -93.28727245 148.49414349 C-94.57246777 148.49801067 -95.85766308 148.50187786 -97.1818037 148.50586224 C-103.2288139 148.49966017 -109.13986604 148.37707032 -115.13737011 147.59179974 C-117.96196666 147.26077531 -120.75909644 147.27399204 -123.59977245 147.30664349 C-124.63231152 147.31566692 -125.66485058 147.32469036 -126.7286787 147.33398724 C-127.49051464 147.3455888 -128.25235058 147.35719036 -129.03727245 147.36914349 C-129.03727245 148.02914349 -129.03727245 148.68914349 -129.03727245 149.36914349 C-124.41727245 149.36914349 -119.79727245 149.36914349 -115.03727245 149.36914349 C-115.03727245 150.02914349 -115.03727245 150.68914349 -115.03727245 151.36914349 C-114.39177441 151.39419964 -113.74627636 151.41925579 -113.08121777 151.44507122 C-110.14971351 151.56128781 -107.21851028 151.6838979 -104.28727245 151.80664349 C-102.76360058 151.8656181 -102.76360058 151.8656181 -101.20914745 151.92578411 C-99.7396162 151.98862591 -99.7396162 151.98862591 -98.24039745 152.05273724 C-97.33966503 152.08939495 -96.43893261 152.12605267 -95.51090527 152.16382122 C-93.03727245 152.36914349 -93.03727245 152.36914349 -89.03727245 153.36914349 C-82.43727245 153.36914349 -75.83727245 153.36914349 -69.03727245 153.36914349 C-69.03727245 134.88914349 -69.03727245 116.40914349 -69.03727245 97.36914349 C-69.36727245 97.36914349 -69.69727245 97.36914349 -70.03727245 97.36914349 Z M-7.03727245 108.36914349 C-7.03727245 111.66914349 -7.03727245 114.96914349 -7.03727245 118.36914349 C-6.70727245 118.36914349 -6.37727245 118.36914349 -6.03727245 118.36914349 C-6.03727245 115.06914349 -6.03727245 111.76914349 -6.03727245 108.36914349 C-6.36727245 108.36914349 -6.69727245 108.36914349 -7.03727245 108.36914349 Z M-166.03727245 140.36914349 C-164.55227245 141.35914349 -164.55227245 141.35914349 -163.03727245 142.36914349 C-163.03727245 141.70914349 -163.03727245 141.04914349 -163.03727245 140.36914349 C-164.02727245 140.36914349 -165.01727245 140.36914349 -166.03727245 140.36914349 Z M-158.03727245 142.36914349 C-154.03727245 143.36914349 -154.03727245 143.36914349 -154.03727245 143.36914349 Z M-150.03727245 144.36914349 C-150.03727245 144.69914349 -150.03727245 145.02914349 -150.03727245 145.36914349 C-148.05727245 145.36914349 -146.07727245 145.36914349 -144.03727245 145.36914349 C-144.03727245 145.03914349 -144.03727245 144.70914349 -144.03727245 144.36914349 C-146.01727245 144.36914349 -147.99727245 144.36914349 -150.03727245 144.36914349 Z M-140.03727245 146.36914349 C-140.03727245 146.69914349 -140.03727245 147.02914349 -140.03727245 147.36914349 C-136.73727245 147.36914349 -133.43727245 147.36914349 -130.03727245 147.36914349 C-130.03727245 147.03914349 -130.03727245 146.70914349 -130.03727245 146.36914349 C-133.33727245 146.36914349 -136.63727245 146.36914349 -140.03727245 146.36914349 Z M229.96272755 186.36914349 C230.96272755 188.36914349 230.96272755 188.36914349 230.96272755 188.36914349 Z M227.96272755 190.36914349 C228.29272755 191.02914349 228.62272755 191.68914349 228.96272755 192.36914349 C229.29272755 191.70914349 229.62272755 191.04914349 229.96272755 190.36914349 C229.30272755 190.36914349 228.64272755 190.36914349 227.96272755 190.36914349 Z M226.96272755 194.36914349 C226.63272755 195.35914349 226.30272755 196.34914349 225.96272755 197.36914349 C226.62272755 197.36914349 227.28272755 197.36914349 227.96272755 197.36914349 C227.63272755 196.37914349 227.30272755 195.38914349 226.96272755 194.36914349 Z M224.96272755 199.36914349 C225.96272755 203.36914349 225.96272755 203.36914349 225.96272755 203.36914349 Z M222.96272755 204.36914349 C222.96272755 206.67914349 222.96272755 208.98914349 222.96272755 211.36914349 C223.29272755 211.36914349 223.62272755 211.36914349 223.96272755 211.36914349 C223.96272755 209.05914349 223.96272755 206.74914349 223.96272755 204.36914349 C223.63272755 204.36914349 223.30272755 204.36914349 222.96272755 204.36914349 Z M220.96272755 211.36914349 C220.96272755 214.33914349 220.96272755 217.30914349 220.96272755 220.36914349 C220.30272755 220.36914349 219.64272755 220.36914349 218.96272755 220.36914349 C218.96272755 229.60914349 218.96272755 238.84914349 218.96272755 248.36914349 C219.62272755 248.36914349 220.28272755 248.36914349 220.96272755 248.36914349 C220.96272755 251.00914349 220.96272755 253.64914349 220.96272755 256.36914349 C221.62272755 256.36914349 222.28272755 256.36914349 222.96272755 256.36914349 C222.88022755 257.17351849 222.79772755 257.97789349 222.71272755 258.80664349 C222.99892399 262.8849428 224.2128997 265.58992531 225.9900713 269.22070599 C226.91592622 271.26576707 227.49216188 273.17977482 227.96272755 275.36914349 C228.62272755 275.36914349 229.28272755 275.36914349 229.96272755 275.36914349 C230.62272755 277.34914349 231.28272755 279.32914349 231.96272755 281.36914349 C232.62272755 281.36914349 233.28272755 281.36914349 233.96272755 281.36914349 C234.05682911 281.9324638 234.15093067 282.49578411 234.2478838 283.07617474 C235.13672519 285.92726708 236.54535019 287.72358569 238.40022755 290.05664349 C239.01768848 290.84426067 239.63514942 291.63187786 240.2713213 292.44336224 C241.82657544 294.45811208 241.82657544 294.45811208 243.96272755 295.36914349 C243.38709926 292.03049945 242.37209139 290.67811716 239.96272755 288.36914349 C239.63272755 287.37914349 239.30272755 286.38914349 238.96272755 285.36914349 C238.30272755 285.36914349 237.64272755 285.36914349 236.96272755 285.36914349 C236.96272755 284.37914349 236.96272755 283.38914349 236.96272755 282.36914349 C236.30272755 282.36914349 235.64272755 282.36914349 234.96272755 282.36914349 C234.71522755 281.54414349 234.46772755 280.71914349 234.21272755 279.86914349 C233.27294497 277.23775227 232.31880608 275.05761337 231.02522755 272.61914349 C228.6672454 268.06214429 227.2984158 263.30714247 225.96272755 258.36914349 C225.30272755 258.36914349 224.64272755 258.36914349 223.96272755 258.36914349 C223.96272755 256.05914349 223.96272755 253.74914349 223.96272755 251.36914349 C223.30272755 251.36914349 222.64272755 251.36914349 221.96272755 251.36914349 C221.96272755 238.16914349 221.96272755 224.96914349 221.96272755 211.36914349 C221.63272755 211.36914349 221.30272755 211.36914349 220.96272755 211.36914349 Z M18.96272755 212.36914349 C19.96272755 216.36914349 19.96272755 216.36914349 19.96272755 216.36914349 Z M25.96272755 231.36914349 C26.96272755 234.36914349 26.96272755 234.36914349 26.96272755 234.36914349 Z M23.96272755 239.36914349 C24.29272755 240.68914349 24.62272755 242.00914349 24.96272755 243.36914349 C25.29272755 242.04914349 25.62272755 240.72914349 25.96272755 239.36914349 C25.30272755 239.36914349 24.64272755 239.36914349 23.96272755 239.36914349 Z M21.96272755 245.36914349 C22.29272755 246.68914349 22.62272755 248.00914349 22.96272755 249.36914349 C23.29272755 248.04914349 23.62272755 246.72914349 23.96272755 245.36914349 C23.30272755 245.36914349 22.64272755 245.36914349 21.96272755 245.36914349 Z M20.96272755 250.36914349 C20.63272755 251.68914349 20.30272755 253.00914349 19.96272755 254.36914349 C20.62272755 254.36914349 21.28272755 254.36914349 21.96272755 254.36914349 C21.63272755 253.04914349 21.30272755 251.72914349 20.96272755 250.36914349 Z M18.96272755 254.36914349 C19.96272755 258.36914349 19.96272755 258.36914349 19.96272755 258.36914349 Z M16.96272755 258.36914349 C14.59292742 261.32291847 14.59292742 261.32291847 14.96272755 265.36914349 C14.30272755 265.36914349 13.64272755 265.36914349 12.96272755 265.36914349 C10.98272755 269.82414349 10.98272755 269.82414349 8.96272755 274.36914349 C9.62272755 274.36914349 10.28272755 274.36914349 10.96272755 274.36914349 C12.79380937 272.07114704 12.79380937 272.07114704 14.58772755 269.18164349 C15.21936817 268.2187138 15.8510088 267.25578411 16.50179005 266.26367474 C18.00435285 263.28667196 18.28590271 261.64278821 17.96272755 258.36914349 C17.63272755 258.36914349 17.30272755 258.36914349 16.96272755 258.36914349 Z M105.96272755 262.36914349 C105.96272755 263.02914349 105.96272755 263.68914349 105.96272755 264.36914349 C102.99272755 264.36914349 100.02272755 264.36914349 96.96272755 264.36914349 C96.96272755 265.02914349 96.96272755 265.68914349 96.96272755 266.36914349 C96.26792286 266.31758099 95.57311817 266.26601849 94.8572588 266.21289349 C91.34265516 266.40261568 88.86512592 267.45600135 85.65022755 268.86914349 C84.58159473 269.33320599 83.51296192 269.79726849 82.4119463 270.27539349 C81.60370411 270.63633099 80.79546192 270.99726849 79.96272755 271.36914349 C79.96272755 272.02914349 79.96272755 272.68914349 79.96272755 273.36914349 C78.64272755 273.36914349 77.32272755 273.36914349 75.96272755 273.36914349 C75.96272755 274.02914349 75.96272755 274.68914349 75.96272755 275.36914349 C75.07585255 275.61664349 74.18897755 275.86414349 73.27522755 276.11914349 C69.84050785 277.41526412 67.7531564 279.03121661 64.96272755 281.36914349 C63.97272755 281.69914349 62.98272755 282.02914349 61.96272755 282.36914349 C61.96272755 283.02914349 61.96272755 283.68914349 61.96272755 284.36914349 C61.28210255 284.59601849 60.60147755 284.82289349 59.90022755 285.05664349 C56.26385665 286.68140495 52.93443492 288.69717605 49.96272755 291.36914349 C49.96272755 292.02914349 49.96272755 292.68914349 49.96272755 293.36914349 C49.30272755 293.36914349 48.64272755 293.36914349 47.96272755 293.36914349 C48.29272755 294.02914349 48.62272755 294.68914349 48.96272755 295.36914349 C51.60272755 294.04914349 54.24272755 292.72914349 56.96272755 291.36914349 C56.96272755 290.70914349 56.96272755 290.04914349 56.96272755 289.36914349 C57.62272755 289.36914349 58.28272755 289.36914349 58.96272755 289.36914349 C58.96272755 288.70914349 58.96272755 288.04914349 58.96272755 287.36914349 C60.28272755 287.36914349 61.60272755 287.36914349 62.96272755 287.36914349 C62.96272755 286.70914349 62.96272755 286.04914349 62.96272755 285.36914349 C63.62272755 285.28664349 64.28272755 285.20414349 64.96272755 285.11914349 C68.95311918 284.12154558 72.34822398 282.29747666 75.96272755 280.36914349 C75.96272755 279.70914349 75.96272755 279.04914349 75.96272755 278.36914349 C77.28272755 278.36914349 78.60272755 278.36914349 79.96272755 278.36914349 C79.96272755 277.70914349 79.96272755 277.04914349 79.96272755 276.36914349 C80.60210255 276.26601849 81.24147755 276.16289349 81.90022755 276.05664349 C85.1942401 275.31717128 88.30024033 274.2919345 91.48616505 273.18554974 C92.71206348 272.78142864 92.71206348 272.78142864 93.96272755 272.36914349 C95.49993458 271.83547161 95.49993458 271.83547161 97.0681963 271.29101849 C101.9493005 269.92107975 106.86532386 270.03964516 111.90022755 270.05664349 C113.32625294 270.03247356 113.32625294 270.03247356 114.78108692 270.00781536 C120.92592837 270.00358046 125.33696397 270.90939404 130.96272755 273.36914349 C133.29596803 274.14459269 135.63606839 274.88804849 137.9822588 275.62304974 C139.96272755 276.36914349 139.96272755 276.36914349 142.96272755 278.36914349 C145.58804279 278.53627918 145.58804279 278.53627918 147.96272755 278.36914349 C147.96272755 279.02914349 147.96272755 279.68914349 147.96272755 280.36914349 C148.95272755 280.36914349 149.94272755 280.36914349 150.96272755 280.36914349 C150.96272755 281.02914349 150.96272755 281.68914349 150.96272755 282.36914349 C151.68718067 282.68367474 152.4116338 282.99820599 153.15804005 283.32226849 C158.42200169 285.65244884 163.26072391 288.01056946 167.96272755 291.36914349 C171.21025137 293.42854884 174.35629431 295.02961114 177.96272755 296.36914349 C177.96272755 297.02914349 177.96272755 297.68914349 177.96272755 298.36914349 C179.28272755 298.03914349 180.60272755 297.70914349 181.96272755 297.36914349 C181.30272755 297.36914349 180.64272755 297.36914349 179.96272755 297.36914349 C179.96272755 296.70914349 179.96272755 296.04914349 179.96272755 295.36914349 C178.97272755 295.36914349 177.98272755 295.36914349 176.96272755 295.36914349 C176.96272755 294.70914349 176.96272755 294.04914349 176.96272755 293.36914349 C175.03685176 291.73774412 173.11946038 290.23191124 171.08772755 288.74414349 C170.25434864 288.11379192 170.25434864 288.11379192 169.4041338 287.47070599 C166.49498405 285.10969443 166.49498405 285.10969443 162.96272755 284.36914349 C162.96272755 283.70914349 162.96272755 283.04914349 162.96272755 282.36914349 C160.98272755 281.70914349 159.00272755 281.04914349 156.96272755 280.36914349 C156.96272755 279.70914349 156.96272755 279.04914349 156.96272755 278.36914349 C154.98272755 278.03914349 153.00272755 277.70914349 150.96272755 277.36914349 C150.96272755 276.70914349 150.96272755 276.04914349 150.96272755 275.36914349 C149.64272755 275.36914349 148.32272755 275.36914349 146.96272755 275.36914349 C146.96272755 274.70914349 146.96272755 274.04914349 146.96272755 273.36914349 C145.97272755 273.36914349 144.98272755 273.36914349 143.96272755 273.36914349 C143.96272755 272.70914349 143.96272755 272.04914349 143.96272755 271.36914349 C142.97272755 271.36914349 141.98272755 271.36914349 140.96272755 271.36914349 C140.96272755 270.70914349 140.96272755 270.04914349 140.96272755 269.36914349 C134.1570462 266.76887599 134.1570462 266.76887599 126.96272755 266.36914349 C126.96272755 265.70914349 126.96272755 265.04914349 126.96272755 264.36914349 C124.32272755 264.36914349 121.68272755 264.36914349 118.96272755 264.36914349 C118.96272755 263.70914349 118.96272755 263.04914349 118.96272755 262.36914349 C114.67272755 262.36914349 110.38272755 262.36914349 105.96272755 262.36914349 Z M7.96272755 274.36914349 C8.96272755 277.36914349 8.96272755 277.36914349 8.96272755 277.36914349 Z M5.96272755 277.36914349 C6.96272755 279.36914349 6.96272755 279.36914349 6.96272755 279.36914349 Z M2.96272755 281.36914349 C2.63272755 282.02914349 2.30272755 282.68914349 1.96272755 283.36914349 C2.62272755 283.36914349 3.28272755 283.36914349 3.96272755 283.36914349 C3.63272755 282.70914349 3.30272755 282.04914349 2.96272755 281.36914349 Z M0.96272755 283.36914349 C0.63272755 284.02914349 0.30272755 284.68914349 -0.03727245 285.36914349 C0.62272755 285.36914349 1.28272755 285.36914349 1.96272755 285.36914349 C1.63272755 284.70914349 1.30272755 284.04914349 0.96272755 283.36914349 Z M-1.03727245 285.36914349 C-1.36727245 286.02914349 -1.69727245 286.68914349 -2.03727245 287.36914349 C-1.37727245 287.36914349 -0.71727245 287.36914349 -0.03727245 287.36914349 C-0.36727245 286.70914349 -0.69727245 286.04914349 -1.03727245 285.36914349 Z M243.96272755 295.36914349 C244.29272755 296.35914349 244.62272755 297.34914349 244.96272755 298.36914349 C245.62272755 298.03914349 246.28272755 297.70914349 246.96272755 297.36914349 C246.63272755 296.70914349 246.30272755 296.04914349 245.96272755 295.36914349 C245.30272755 295.36914349 244.64272755 295.36914349 243.96272755 295.36914349 Z M41.96272755 298.36914349 C41.63272755 299.02914349 41.30272755 299.68914349 40.96272755 300.36914349 C41.62272755 300.36914349 42.28272755 300.36914349 42.96272755 300.36914349 C42.63272755 299.70914349 42.30272755 299.04914349 41.96272755 298.36914349 Z M246.96272755 298.36914349 C247.29272755 299.68914349 247.62272755 301.00914349 247.96272755 302.36914349 C249.94272755 302.86414349 249.94272755 302.86414349 251.96272755 303.36914349 C250.31272755 301.71914349 248.66272755 300.06914349 246.96272755 298.36914349 Z M183.96272755 300.36914349 C183.96272755 301.02914349 183.96272755 301.68914349 183.96272755 302.36914349 C184.62272755 302.36914349 185.28272755 302.36914349 185.96272755 302.36914349 C185.96272755 301.70914349 185.96272755 301.04914349 185.96272755 300.36914349 C185.30272755 300.36914349 184.64272755 300.36914349 183.96272755 300.36914349 Z M251.96272755 303.36914349 C251.96272755 304.02914349 251.96272755 304.68914349 251.96272755 305.36914349 C252.62272755 305.03914349 253.28272755 304.70914349 253.96272755 304.36914349 C253.30272755 304.03914349 252.64272755 303.70914349 251.96272755 303.36914349 Z M-13.03727245 333.36914349 C-13.03727245 333.69914349 -13.03727245 334.02914349 -13.03727245 334.36914349 C-7.42727245 334.69914349 -1.81727245 335.02914349 3.96272755 335.36914349 C4.29272755 336.35914349 4.62272755 337.34914349 4.96272755 338.36914349 C5.29272755 336.71914349 5.62272755 335.06914349 5.96272755 333.36914349 C-0.30727245 333.36914349 -6.57727245 333.36914349 -13.03727245 333.36914349 Z M218.96272755 333.36914349 C218.96272755 336.99914349 218.96272755 340.62914349 218.96272755 344.36914349 C219.29272755 344.36914349 219.62272755 344.36914349 219.96272755 344.36914349 C220.29272755 341.39914349 220.62272755 338.42914349 220.96272755 335.36914349 C226.90272755 335.03914349 232.84272755 334.70914349 238.96272755 334.36914349 C238.96272755 334.03914349 238.96272755 333.70914349 238.96272755 333.36914349 C232.36272755 333.36914349 225.76272755 333.36914349 218.96272755 333.36914349 Z " fill="#090A0A" transform="translate(428.0372724533081,589.630856513977)"/>
<path d="M0 0 C1.19570114 -0.0098568 1.19570114 -0.0098568 2.41555786 -0.01991272 C5.05544125 -0.0396331 7.69526772 -0.05130685 10.33520508 -0.0612793 C11.23817133 -0.06535482 12.14113758 -0.06943035 13.07146645 -0.07362938 C17.85281775 -0.09448692 22.63414039 -0.10878878 27.41552734 -0.11816406 C32.34390701 -0.1292147 37.27183347 -0.1635999 42.20005322 -0.20333576 C45.99801955 -0.22953797 49.79587862 -0.2378592 53.59392738 -0.24144554 C55.409926 -0.24630389 57.22592007 -0.2578964 59.04183006 -0.27648354 C61.59074687 -0.30094724 64.13850066 -0.29989685 66.6875 -0.29296875 C67.80145393 -0.31218384 67.80145393 -0.31218384 68.93791199 -0.33178711 C74.36417394 -0.27834454 78.66412478 1.09249388 83.16723633 4.17700195 C87.68433439 9.85233028 88.31464185 14.29421224 88.30145741 21.33248425 C88.30380964 22.17773585 88.30616187 23.02298745 88.30858538 23.89385274 C88.31528908 26.75120323 88.31481674 29.60850838 88.31440735 32.46586609 C88.31770512 34.5251546 88.3214305 36.58444247 88.32554883 38.64372951 C88.33558679 44.32229442 88.3392885 50.00084877 88.34193814 55.67942131 C88.34583585 61.79614772 88.35541452 67.91286573 88.364151 74.02958679 C88.382995 88.11205681 88.39317353 102.1945249 88.40161168 116.27700398 C88.40581698 123.23454013 88.41103913 130.19207541 88.41629621 137.14961084 C88.43418697 160.96127618 88.44918351 184.77294178 88.4566164 208.58461285 C88.45709116 210.079752 88.45756705 211.57489116 88.45804406 213.07003032 C88.45828044 213.8114922 88.45851682 214.55295408 88.45876035 215.31688451 C88.45996157 219.07356103 88.46117701 222.83023755 88.46240234 226.58691406 C88.46276257 227.70520399 88.46276257 227.70520399 88.46313007 228.84608562 C88.47102403 253.02104644 88.49445758 277.19595822 88.52695829 301.37089762 C88.56124898 326.92387599 88.58096683 352.47682566 88.58426064 378.02982742 C88.58467819 380.83448368 88.58515775 383.63913992 88.58568382 386.44379616 C88.58586861 387.47969069 88.58586861 387.47969069 88.58605713 388.53651239 C88.58839009 399.65466771 88.60405537 410.77276611 88.62452567 421.89090115 C88.6447723 433.0647582 88.6499328 444.23854786 88.64075503 455.41242614 C88.63619909 461.46702979 88.6381718 467.52144844 88.65751648 473.57602692 C88.67506829 479.11721482 88.67421538 484.65808167 88.65861919 490.19927261 C88.65623096 492.20537241 88.66062916 494.21149397 88.67244784 496.21756037 C88.68751115 498.94286967 88.67793285 501.6670332 88.66222095 504.39231396 C88.67755427 505.56276256 88.67755427 505.56276256 88.69319734 506.75685659 C88.62391082 512.25695987 87.310579 516.61364315 84.16723633 521.17700195 C78.60625387 525.60309003 74.23793873 526.32934422 67.33447266 526.35400391 C66.13877151 526.3638607 66.13877151 526.3638607 64.91891479 526.37391663 C62.27903141 526.393637 59.63920494 526.40531075 56.99926758 526.4152832 C55.6448182 526.42139649 55.6448182 526.42139649 54.26300621 526.42763329 C49.48165491 526.44849083 44.70033226 526.46279269 39.91894531 526.47216797 C34.99056564 526.4832186 30.06263919 526.5176038 25.13441944 526.55733967 C21.3364531 526.58354187 17.53859404 526.59186311 13.74054527 526.59544945 C11.92454665 526.6003078 10.10855259 526.61190031 8.29264259 526.63048744 C5.74372578 526.65495114 3.195972 526.65390076 0.64697266 526.64697266 C-0.0956633 526.65978271 -0.83829926 526.67259277 -1.60343933 526.68579102 C-7.02970128 526.63234844 -11.32965212 525.26151003 -15.83276367 522.17700195 C-20.34986173 516.50167362 -20.9801692 512.05979166 -20.96698475 505.02151966 C-20.96933698 504.17626806 -20.97168921 503.33101645 -20.97411272 502.46015117 C-20.98081642 499.60280068 -20.98034408 496.74549552 -20.97993469 493.88813782 C-20.98323246 491.8288493 -20.98695784 489.76956144 -20.99107617 487.7102744 C-21.00111413 482.03170948 -21.00481585 476.35315514 -21.00746548 470.6745826 C-21.0113632 464.55785618 -21.02094187 458.44113818 -21.02967834 452.32441711 C-21.04852235 438.24194709 -21.05870087 424.15947901 -21.06713903 410.07699993 C-21.07134433 403.11946378 -21.07656647 396.16192849 -21.08182355 389.20439307 C-21.09971431 365.39272772 -21.11471085 341.58106213 -21.12214375 317.76939106 C-21.1226185 316.2742519 -21.12309439 314.77911274 -21.12357141 313.28397359 C-21.12380778 312.5425117 -21.12404416 311.80104982 -21.1242877 311.0371194 C-21.12548891 307.28044288 -21.12670436 303.52376636 -21.12792969 299.76708984 C-21.12816984 299.02156323 -21.12840999 298.27603661 -21.12865741 297.50791828 C-21.13655138 273.33295746 -21.15998492 249.15804569 -21.19248563 224.98310629 C-21.22677632 199.43012792 -21.24649417 173.87717825 -21.24978799 148.32417649 C-21.25020553 145.51952023 -21.2506851 142.71486399 -21.25121117 139.91020775 C-21.25133436 139.21961139 -21.25145755 138.52901504 -21.25158447 137.81749152 C-21.25391744 126.6993362 -21.26958272 115.58123779 -21.29005301 104.46310276 C-21.31029964 93.2892457 -21.31546015 82.11545604 -21.30628238 70.94157777 C-21.30172643 64.88697412 -21.30369914 58.83255547 -21.32304382 52.77797699 C-21.34059563 47.23678908 -21.33974272 41.69592223 -21.32414653 36.1547313 C-21.32175831 34.1486315 -21.32615651 32.14250994 -21.33797518 30.13644353 C-21.35303849 27.41113423 -21.34346019 24.68697071 -21.3277483 21.96168995 C-21.33797051 21.18139088 -21.34819271 20.40109181 -21.35872468 19.59714732 C-21.28943816 14.09704404 -19.97610634 9.74036076 -16.83276367 5.17700195 C-11.27178121 0.75091387 -6.90346607 0.02465969 0 0 Z " fill="#E38317" transform="translate(424.832763671875,44.822998046875)"/>
<path d="M0 0 C0.80688766 -0.0065712 1.61377533 -0.0131424 2.44511414 -0.01991272 C5.11746313 -0.03963415 7.78975589 -0.05130705 10.4621582 -0.0612793 C11.37615702 -0.06535482 12.29015583 -0.06943035 13.23185158 -0.07362938 C18.0715576 -0.09448731 22.91123532 -0.10878903 27.75097656 -0.11816406 C32.73988789 -0.12921516 37.72835156 -0.16360082 42.71710491 -0.20333576 C46.5613943 -0.22953591 50.40557769 -0.23785902 54.2499485 -0.24144554 C56.08827544 -0.24630437 57.92659786 -0.25789825 59.76483727 -0.27648354 C62.34488285 -0.30094291 64.92377919 -0.2998976 67.50390625 -0.29296875 C68.63188629 -0.31218384 68.63188629 -0.31218384 69.78265381 -0.33178711 C75.23524561 -0.27871856 79.55111833 1.07203637 84.07543945 4.17700195 C88.17678418 9.32997353 89.19975949 13.09015223 89.20966053 19.56772137 C89.21201276 20.22218674 89.21436499 20.87665212 89.2167885 21.55094978 C89.22348244 23.75929938 89.22302016 25.96759019 89.22261047 28.1759491 C89.22590885 29.76913538 89.22963437 31.36232082 89.23375195 32.95550519 C89.24378301 37.34569256 89.24749052 41.73586626 89.25014126 46.12606347 C89.25404103 50.85627521 89.26361958 55.58647609 89.27235413 60.31668091 C89.29212762 71.74604426 89.30218579 83.17540851 89.31108192 94.6047847 C89.31546329 99.9847111 89.32083049 105.36463652 89.32607079 110.74456215 C89.34308381 128.62453984 89.35757859 146.50451691 89.36481953 164.38450146 C89.36672948 169.0257028 89.3686498 173.66690414 89.37060547 178.30810547 C89.37108921 179.4616784 89.37157295 180.61525133 89.37207135 181.80378101 C89.38037388 200.49617764 89.40571425 219.18851031 89.43818615 237.88087901 C89.47123955 257.06410442 89.48926673 276.24729731 89.49246377 295.43055135 C89.49463044 306.20441961 89.50340207 316.9781946 89.52892494 327.75203514 C89.55060844 336.92646773 89.55869393 346.10078442 89.54895816 355.27523973 C89.54440667 359.95673328 89.54634897 364.63798757 89.5657196 369.31944847 C89.58330346 373.6060805 89.58239254 377.89229787 89.56682231 382.17893402 C89.56443896 383.72877956 89.56880744 385.27865346 89.58065096 386.82845559 C89.6851247 401.40359807 89.6851247 401.40359807 85.07543945 408.17700195 C79.48505422 412.62649224 75.08962181 413.32952232 68.15087891 413.35400391 C67.34399124 413.3605751 66.53710358 413.3671463 65.70576477 413.37391663 C63.03341578 413.39363806 60.36112302 413.40531095 57.6887207 413.4152832 C56.77472189 413.41935873 55.86072308 413.42343426 54.91902733 413.42763329 C50.0793213 413.44849121 45.23964359 413.46279294 40.39990234 413.47216797 C35.41099102 413.48321907 30.42252735 413.51760473 25.43377399 413.55733967 C21.58948461 413.58353982 17.74530122 413.59186292 13.9009304 413.59544945 C12.06260347 413.60030828 10.22428105 413.61190215 8.38604164 413.63048744 C5.80599605 413.65494682 3.22709972 413.6539015 0.64697266 413.64697266 C-0.48100739 413.66618774 -0.48100739 413.66618774 -1.6317749 413.68579102 C-7.0843667 413.63272246 -11.40023942 412.28196754 -15.92456055 409.17700195 C-20.02590527 404.02403038 -21.04888058 400.26385168 -21.05878162 393.78628254 C-21.06113385 393.13181716 -21.06348608 392.47735179 -21.06590959 391.80305412 C-21.07260353 389.59470452 -21.07214125 387.38641371 -21.07173157 385.17805481 C-21.07502995 383.58486853 -21.07875546 381.99168309 -21.08287305 380.39849871 C-21.0929041 376.00831134 -21.09661161 371.61813765 -21.09926236 367.22794044 C-21.10316212 362.4977287 -21.11274067 357.76752782 -21.12147522 353.037323 C-21.14124872 341.60795965 -21.15130688 330.17859539 -21.16020301 318.74921921 C-21.16458439 313.3692928 -21.16995158 307.98936738 -21.17519188 302.60944176 C-21.19220491 284.72946407 -21.20669968 266.84948699 -21.21394062 248.96950245 C-21.21585057 244.3283011 -21.21777089 239.68709976 -21.21972656 235.04589844 C-21.2202103 233.89232551 -21.22069404 232.73875258 -21.22119244 231.5502229 C-21.22949498 212.85782627 -21.25483535 194.16549359 -21.28730724 175.4731249 C-21.32036065 156.28989949 -21.33838782 137.1067066 -21.34158486 117.92345256 C-21.34375153 107.1495843 -21.35252316 96.3758093 -21.37804604 85.60196877 C-21.39972953 76.42753617 -21.40781503 67.25321949 -21.39807925 58.07876418 C-21.39352776 53.39727062 -21.39547007 48.71601633 -21.4148407 44.03455544 C-21.43242455 39.74792341 -21.43151364 35.46170603 -21.41594341 31.17506989 C-21.41356006 29.62522434 -21.41792853 28.07535044 -21.42977206 26.52554832 C-21.53424579 11.95040583 -21.53424579 11.95040583 -16.92456055 5.17700195 C-11.33417532 0.72751167 -6.9387429 0.02448159 0 0 Z " fill="#E38317" transform="translate(569.924560546875,158.822998046875)"/>
<path d="M0 0 C0.86540909 -0.0065712 1.73081818 -0.0131424 2.62245178 -0.01991272 C5.48959439 -0.03963997 8.35668459 -0.05130814 11.22387695 -0.0612793 C12.69416823 -0.06739259 12.69416823 -0.06739259 14.19416237 -0.07362938 C19.38399673 -0.09448943 24.57380466 -0.10879045 29.76367188 -0.11816406 C35.11577434 -0.12921773 40.46745983 -0.16360591 45.81941509 -0.20333576 C49.94164282 -0.22952454 54.06377162 -0.237858 58.18607521 -0.24144554 C60.15837222 -0.24630701 62.13066495 -0.25790843 64.10288048 -0.27648354 C66.8697007 -0.30091905 69.63544791 -0.29990173 72.40234375 -0.29296875 C73.21043488 -0.30577881 74.018526 -0.31858887 74.85110474 -0.33178711 C80.45856214 -0.28081795 84.8765783 0.95005718 89.5246582 4.17700195 C93.05144522 8.60809333 94.64657773 12.13167497 94.65887928 17.75610638 C94.66333712 18.70114613 94.66779497 19.64618589 94.6723879 20.61986321 C94.67220354 21.66011472 94.67201917 22.70036622 94.67182922 23.7721405 C94.67550591 24.87570194 94.6791826 25.97926338 94.6829707 27.11626607 C94.69402953 30.83337473 94.69785511 34.55045546 94.70166016 38.26757812 C94.70792312 40.92495898 94.71455682 43.58233682 94.72157288 46.23971558 C94.74133578 54.22818666 94.7514034 62.21665901 94.76030067 70.20514843 C94.76468396 73.96724958 94.77005067 77.72934932 94.77528954 81.49144936 C94.79230185 93.99794186 94.80679588 106.50443349 94.81403828 119.01093578 C94.81594817 122.25647673 94.8178685 125.50201767 94.81982422 128.74755859 C94.82030796 129.55422021 94.8207917 130.36088182 94.8212901 131.19198773 C94.82958988 144.25851956 94.85492588 157.32495983 94.8874049 170.39145168 C94.92047986 183.80709435 94.93848744 197.22269049 94.94168252 210.63837415 C94.94384724 218.17056125 94.9525903 225.70261484 94.97814369 233.23476219 C94.99985672 239.6497339 95.00789822 246.06453966 94.99817691 252.47954395 C94.99363381 255.75151001 94.99770313 259.02306245 95.01493835 262.29499626 C95.03259681 265.84593528 95.02557975 269.39600595 95.0124054 272.94694519 C95.02337464 273.97604309 95.03434389 275.00514099 95.04564553 276.06542367 C94.99065147 282.20565035 94.19956773 287.11619147 90.5246582 292.17700195 C84.76166101 296.76387727 80.19599535 297.33051766 73.04931641 297.35400391 C72.18390732 297.3605751 71.31849823 297.3671463 70.42686462 297.37391663 C67.55972201 297.39364387 64.69263181 297.40531205 61.82543945 297.4152832 C60.35514817 297.42139649 60.35514817 297.42139649 58.85515404 297.42763329 C53.66531968 297.44849333 48.47551174 297.46279435 43.28564453 297.47216797 C37.93354206 297.48322163 32.58185658 297.51760982 27.22990131 297.55733967 C23.10767359 297.58352845 18.98554479 297.59186191 14.8632412 297.59544945 C12.89094418 297.60031092 10.91865146 297.61191234 8.94643593 297.63048744 C6.17961571 297.65492295 3.4138685 297.65390563 0.64697266 297.64697266 C-0.56516403 297.66618774 -0.56516403 297.66618774 -1.80178833 297.68579102 C-7.40924573 297.63482186 -11.8272619 296.40394673 -16.4753418 293.17700195 C-20.00212881 288.74591058 -21.59726132 285.22232894 -21.60956287 279.59789753 C-21.61402072 278.65285777 -21.61847856 277.70781802 -21.62307149 276.73414069 C-21.62288713 275.69388919 -21.62270277 274.65363768 -21.62251282 273.5818634 C-21.62618951 272.47830197 -21.62986619 271.37474053 -21.6336543 270.23773783 C-21.64471313 266.52062918 -21.64853871 262.80354845 -21.65234375 259.08642578 C-21.65860672 256.42904493 -21.66524041 253.77166708 -21.67225647 251.11428833 C-21.69201938 243.12581725 -21.70208699 235.1373449 -21.71098426 227.14885548 C-21.71536755 223.38675433 -21.72073427 219.62465459 -21.72597313 215.86255455 C-21.74298544 203.35606205 -21.75747947 190.84957042 -21.76472187 178.34306812 C-21.76663176 175.09752717 -21.76855209 171.85198623 -21.77050781 168.60644531 C-21.77099155 167.7997837 -21.77147529 166.99312208 -21.77197369 166.16201618 C-21.78027347 153.09548434 -21.80560947 140.02904408 -21.83808849 126.96255223 C-21.87116345 113.54690956 -21.88917103 100.13131341 -21.89236611 86.71562976 C-21.89453084 79.18344266 -21.90327389 71.65138907 -21.92882729 64.11924171 C-21.95054031 57.70427001 -21.95858182 51.28946424 -21.9488605 44.87445996 C-21.9443174 41.6024939 -21.94838672 38.33094146 -21.96562195 35.05900764 C-21.98328041 31.50806862 -21.97626334 27.95799796 -21.96308899 24.40705872 C-21.97405824 23.37796082 -21.98502748 22.34886292 -21.99632913 21.28858024 C-21.94133507 15.14835356 -21.15025133 10.23781243 -17.4753418 5.17700195 C-11.7123446 0.59012663 -7.14667895 0.02348624 0 0 Z " fill="#E38317" transform="translate(274.475341796875,273.822998046875)"/>
<path d="M0 0 C0.80688766 -0.0065712 1.61377533 -0.0131424 2.44511414 -0.01991272 C5.11746313 -0.03963415 7.78975589 -0.05130705 10.4621582 -0.0612793 C11.37615702 -0.06535482 12.29015583 -0.06943035 13.23185158 -0.07362938 C18.0715576 -0.09448731 22.91123532 -0.10878903 27.75097656 -0.11816406 C32.73988789 -0.12921516 37.72835156 -0.16360082 42.71710491 -0.20333576 C46.5613943 -0.22953591 50.40557769 -0.23785902 54.2499485 -0.24144554 C56.08827544 -0.24630437 57.92659786 -0.25789825 59.76483727 -0.27648354 C62.34488285 -0.30094291 64.92377919 -0.2998976 67.50390625 -0.29296875 C68.63188629 -0.31218384 68.63188629 -0.31218384 69.78265381 -0.33178711 C75.23524561 -0.27871856 79.55111833 1.07203637 84.07543945 4.17700195 C87.98717114 9.09174177 89.19739295 12.76212922 89.22261047 18.95072937 C89.22976578 20.15493027 89.23692108 21.35913116 89.24429321 22.599823 C89.24713345 23.93634007 89.24984518 25.27285743 89.25244141 26.609375 C89.2587073 28.01554024 89.26535421 29.42170382 89.27235413 30.8278656 C89.29338507 35.44813893 89.30375679 40.06841255 89.3137207 44.6887207 C89.31776886 46.28059214 89.3218858 47.8724634 89.32607079 49.46433449 C89.34512171 56.9447805 89.35935196 64.42521666 89.36768275 71.90568227 C89.37744996 80.53301537 89.40375622 89.16009155 89.44418365 97.78733414 C89.47437612 104.4600781 89.48915466 111.13274854 89.49246377 117.80555946 C89.49481104 121.78870375 89.50372881 125.77157354 89.52892494 129.75464439 C89.55226523 133.50496724 89.55641529 137.25483603 89.54616356 141.00521278 C89.54543487 143.02902753 89.56448492 145.05281952 89.58422852 147.07653809 C89.54337963 154.24351809 89.06486055 159.13874082 85.07543945 165.17700195 C79.48505422 169.62649224 75.08962181 170.32952232 68.15087891 170.35400391 C67.34399124 170.3605751 66.53710358 170.3671463 65.70576477 170.37391663 C63.03341578 170.39363806 60.36112302 170.40531095 57.6887207 170.4152832 C56.77472189 170.41935873 55.86072308 170.42343426 54.91902733 170.42763329 C50.0793213 170.44849121 45.23964359 170.46279294 40.39990234 170.47216797 C35.41099102 170.48321907 30.42252735 170.51760473 25.43377399 170.55733967 C21.58948461 170.58353982 17.74530122 170.59186292 13.9009304 170.59544945 C12.06260347 170.60030828 10.22428105 170.61190215 8.38604164 170.63048744 C5.80599605 170.65494682 3.22709972 170.6539015 0.64697266 170.64697266 C-0.48100739 170.66618774 -0.48100739 170.66618774 -1.6317749 170.68579102 C-7.0843667 170.63272246 -11.40023942 169.28196754 -15.92456055 166.17700195 C-19.83629224 161.26226214 -21.04651404 157.59187469 -21.07173157 151.40327454 C-21.07888687 150.19907364 -21.08604218 148.99487274 -21.09341431 147.75418091 C-21.09625454 146.41766383 -21.09896627 145.08114648 -21.1015625 143.74462891 C-21.10782839 142.33846367 -21.1144753 140.93230008 -21.12147522 139.52613831 C-21.14250616 134.90586498 -21.15287789 130.28559136 -21.1628418 125.6652832 C-21.16688996 124.07341177 -21.1710069 122.4815405 -21.17519188 120.88966942 C-21.1942428 113.40922341 -21.20847306 105.92878725 -21.21680385 98.44832164 C-21.22657105 89.82098854 -21.25287731 81.19391236 -21.29330474 72.56666976 C-21.32349722 65.89392581 -21.33827576 59.22125537 -21.34158486 52.54844445 C-21.34393213 48.56530016 -21.3528499 44.58243036 -21.37804604 40.59935951 C-21.40138632 36.84903666 -21.40553639 33.09916788 -21.39528465 29.34879112 C-21.39455596 27.32497638 -21.41360601 25.30118439 -21.43334961 23.27746582 C-21.39250072 16.11048582 -20.91398164 11.21526309 -16.92456055 5.17700195 C-11.33417532 0.72751167 -6.9387429 0.02448159 0 0 Z " fill="#E38317" transform="translate(714.924560546875,401.822998046875)"/>
<path d="M0 0 C1.22492802 -0.00260775 2.44985604 -0.00521549 3.7119031 -0.00790226 C5.08927455 -0.0057395 6.46664586 -0.00348282 7.84401703 -0.0011425 C9.29428125 -0.00229348 10.74454517 -0.00388085 12.19480848 -0.00586975 C16.20179499 -0.01006977 20.20875787 -0.00796898 24.2157445 -0.00488353 C28.53345689 -0.0026309 32.85116508 -0.00610935 37.16887665 -0.00886345 C45.65622713 -0.01332973 54.1435688 -0.01233855 62.63091964 -0.00945081 C69.56819937 -0.00718944 76.50547665 -0.00688748 83.44275665 -0.00797462 C84.43177588 -0.00812786 85.42079511 -0.00828109 86.43978462 -0.00843897 C88.4501127 -0.00875875 90.46044079 -0.00908296 92.47076887 -0.00941156 C111.38656368 -0.01227155 130.30235367 -0.00897677 149.2181477 -0.00361119 C165.28757243 0.0008077 181.3569899 0.00012327 197.42641449 -0.00452995 C216.16439607 -0.00995354 234.90237333 -0.01194484 253.64035559 -0.00891769 C255.66516717 -0.00859925 257.68997876 -0.00828488 259.71479034 -0.00797462 C260.71035951 -0.00782035 261.70592867 -0.00766607 262.73166659 -0.00750712 C269.58681091 -0.00666116 276.44195237 -0.00808147 283.29709625 -0.01045418 C332.67198271 -0.02610634 382.02795993 0.28935305 431.39614105 1.12584114 C431.39614105 1.45584114 431.39614105 1.78584114 431.39614105 2.12584114 C384.68063588 3.18715352 337.97740395 3.29008968 291.25195885 3.29309821 C285.05008502 3.29359971 278.84821264 3.29590619 272.64633942 3.29859543 C252.08155657 3.30732913 231.51677884 3.31202346 210.95199412 3.31126495 C209.85622862 3.311225 208.76046313 3.31118504 207.63149261 3.31114388 C206.53436394 3.31110299 205.43723527 3.31106211 204.30686027 3.31101999 C186.36727894 3.31060998 168.42771824 3.32028672 150.48814291 3.33428224 C131.96539234 3.34861742 113.4426519 3.35555481 94.91989565 3.35468847 C84.55954637 3.35435672 74.19921905 3.35709742 63.83887482 3.36786652 C55.06563917 3.37693101 46.29243557 3.37917837 37.51919729 3.37235709 C33.04673541 3.3690785 28.57433524 3.36908459 24.10187912 3.37771034 C20.01584967 3.3855112 15.92993155 3.3842108 11.84390503 3.37542621 C10.3610902 3.3738776 8.87826731 3.37575787 7.39546198 3.38128629 C5.39151585 3.38826806 3.38753615 3.38190224 1.3835907 3.37473011 C0.26751607 3.37494748 -0.84855855 3.37516485 -1.99845362 3.3753888 C-4.60385895 3.12584114 -4.60385895 3.12584114 -6.60385895 1.12584114 C-4.84871159 -0.62930622 -2.38288492 0.00036298 0 0 Z " fill="#040303" transform="translate(434.6038589477539,591.8741588592529)"/>
<path d="M0 0 C0.66 0 1.32 0 2 0 C2 0.66 2 1.32 2 2 C6.455 1.505 6.455 1.505 11 1 C11.33 2.32 11.66 3.64 12 5 C12.66 5 13.32 5 14 5 C14 4.34 14 3.68 14 3 C15.32 3 16.64 3 18 3 C18 3.66 18 4.32 18 5 C20.475 5.495 20.475 5.495 23 6 C23.33 6.99 23.66 7.98 24 9 C25.65 9 27.3 9 29 9 C29 8.34 29 7.68 29 7 C29.66 7 30.32 7 31 7 C31 7.66 31 8.32 31 9 C35.62 9 40.24 9 45 9 C45 9.66 45 10.32 45 11 C47.31 11 49.62 11 52 11 C52 11.99 52 12.98 52 14 C54.64 13.67 57.28 13.34 60 13 C60 12.67 60 12.34 60 12 C65.28 12 70.56 12 76 12 C76.495 12.99 76.495 12.99 77 14 C72.38 14 67.76 14 63 14 C63 14.66 63 15.32 63 16 C67.62 16 72.24 16 77 16 C77.495 17.485 77.495 17.485 78 19 C75.69 19.33 73.38 19.66 71 20 C71 20.99 71 21.98 71 23 C69.68 23 68.36 23 67 23 C67 24.32 67 25.64 67 27 C60.84765625 27.09765625 60.84765625 27.09765625 59 27 C58.67 26.67 58.34 26.34 58 26 C55.47804033 25.60056824 52.97036344 25.24920152 50.4375 24.9375 C49.72658203 24.84662109 49.01566406 24.75574219 48.28320312 24.66210938 C46.52261597 24.43760497 44.76136522 24.21831603 43 24 C43 23.34 43 22.68 43 22 C40.36 22 37.72 22 35 22 C35 21.34 35 20.68 35 20 C33.02 20 31.04 20 29 20 C29 19.34 29 18.68 29 18 C27.02 18 25.04 18 23 18 C23 17.34 23 16.68 23 16 C22.278125 16.04125 21.55625 16.0825 20.8125 16.125 C17.7485148 15.98882288 15.81561628 15.16745065 13 14 C11.0075675 13.62406934 9.0081326 13.28020455 7 13 C7 12.34 7 11.68 7 11 C5.35 11 3.7 11 2 11 C2 10.34 2 9.68 2 9 C0.68 9 -0.64 9 -2 9 C-1.125 1.125 -1.125 1.125 0 0 Z " fill="#151014" transform="translate(236,723)"/>
<path d="M0 0 C0.33 0.66 0.66 1.32 1 2 C1.66 2 2.32 2 3 2 C3 2.66 3 3.32 3 4 C5.33214148 5.20628008 7.49642139 6.1654738 10 7 C10 7.66 10 8.32 10 9 C10.66 9 11.32 9 12 9 C12 9.66 12 10.32 12 11 C12.639375 11.226875 13.27875 11.45375 13.9375 11.6875 C18.13320261 13.48565826 22.03900556 15.73904021 26 18 C26 18.66 26 19.32 26 20 C27.32 20 28.64 20 30 20 C30 20.66 30 21.32 30 22 C31.32 22.33 32.64 22.66 34 23 C33.01 25.31 32.02 27.62 31 30 C31.66 30 32.32 30 33 30 C33 30.99 33 31.98 33 33 C28.03926578 34.32286246 23.08888488 34.08893197 18 34 C18 33.34 18 32.68 18 32 C23.75 30.875 23.75 30.875 26 32 C26 31.34 26 30.68 26 30 C25.195625 29.773125 24.39125 29.54625 23.5625 29.3125 C18.05122959 27.28203195 13.13087064 24.29705169 8.125 21.25 C5.93553243 19.86271415 5.93553243 19.86271415 3 19 C3 18.34 3 17.68 3 17 C2.34 17 1.68 17 1 17 C1 16.34 1 15.68 1 15 C-0.32 15 -1.64 15 -3 15 C-3 14.34 -3 13.68 -3 13 C-3.66 13 -4.32 13 -5 13 C-5.33 11.68 -5.66 10.36 -6 9 C-5.34 9 -4.68 9 -4 9 C-4 9.66 -4 10.32 -4 11 C-3.34 11 -2.68 11 -2 11 C-2 11.66 -2 12.32 -2 13 C-1.34 13 -0.68 13 0 13 C-0.33 10.69 -0.66 8.38 -1 6 C-0.34 5.67 0.32 5.34 1 5 C0.67 3.35 0.34 1.7 0 0 Z " fill="#140F11" transform="translate(693,890)"/>
<path d="M0 0 C19.8 0 39.6 0 60 0 C60 0.66 60 1.32 60 2 C31.785 2.495 31.785 2.495 3 3 C2.67 5.31 2.34 7.62 2 10 C-71.59 10 -145.18 10 -221 10 C-221 9.67 -221 9.34 -221 9 C-148.07 9 -75.14 9 0 9 C0 6.03 0 3.06 0 0 Z " fill="#1C191B" transform="translate(359,610)"/>
<path d="M0 0 C1.8125 1.5625 1.8125 1.5625 3 3 C3.845625 2.71125 4.69125 2.4225 5.5625 2.125 C9.02361041 0.99227296 12.49372557 -0.01824316 16 -1 C16 -0.34 16 0.32 16 1 C15.40832031 1.32613281 14.81664062 1.65226563 14.20703125 1.98828125 C13.41683594 2.42527344 12.62664062 2.86226562 11.8125 3.3125 C10.99136719 3.76625 10.17023438 4.22 9.32421875 4.6875 C7.56352765 5.68177262 5.83548817 6.73414876 4.125 7.8125 C2 9 2 9 -1 9 C-1 9.66 -1 10.32 -1 11 C-5.62197306 13.21854707 -8.76824163 14.38281159 -14 14 C-14 13.34 -14 12.68 -14 12 C-13.01 12 -12.02 12 -11 12 C-12.31201173 10.43750191 -12.31201173 10.43750191 -14 9 C-17.11227195 9 -19.94152152 9.45627049 -23 10 C-23 9.34 -23 8.68 -23 8 C-20.35261084 6.5393715 -19.10551666 6 -16 6 C-16 5.34 -16 4.68 -16 4 C-14.68 4 -13.36 4 -12 4 C-12 3.34 -12 2.68 -12 2 C-4.41635688 -1.71747212 -4.41635688 -1.71747212 0 0 Z " fill="#141415" transform="translate(377,904)"/>
<path d="M0 0 C2.57575061 3.86362592 2.26624186 7.03341179 2.22705078 11.51049805 C2.22734283 12.37900391 2.22763489 13.24750977 2.22793579 14.14233398 C2.22654147 17.01556356 2.21097544 19.88853442 2.1953125 22.76171875 C2.19158273 24.75283161 2.18873559 26.7439463 2.18673706 28.73506165 C2.17909775 33.97776347 2.15944666 39.22035462 2.1373291 44.4630127 C2.11687712 49.81191511 2.10773673 55.16083539 2.09765625 60.50976562 C2.07620108 71.00655906 2.0420615 81.50327033 2 92 C1.34 92 0.68 92 0 92 C-0.33 75.17 -0.66 58.34 -1 41 C-1.33 41 -1.66 41 -2 41 C-2.02887814 37.52085059 -2.04675687 34.04173169 -2.0625 30.5625 C-2.07087891 29.56927734 -2.07925781 28.57605469 -2.08789062 27.55273438 C-2.09111328 26.60849609 -2.09433594 25.66425781 -2.09765625 24.69140625 C-2.10289307 23.81685791 -2.10812988 22.94230957 -2.11352539 22.04125977 C-2 20 -2 20 -1 19 C-0.84379445 17.58672053 -0.74943827 16.1664541 -0.68359375 14.74609375 C-0.64169922 13.89208984 -0.59980469 13.03808594 -0.55664062 12.15820312 C-0.51732422 11.26037109 -0.47800781 10.36253906 -0.4375 9.4375 C-0.39431641 8.53580078 -0.35113281 7.63410156 -0.30664062 6.70507812 C-0.20021858 4.47021515 -0.09820012 2.23523692 0 0 Z " fill="#30262A" transform="translate(359,651)"/>
<path d="M0 0 C2.02481079 -0.36076355 2.02481079 -0.36076355 4.54150391 -0.34057617 C5.95274033 -0.34023628 5.95274033 -0.34023628 7.39248657 -0.33988953 C8.41023163 -0.32440567 9.42797668 -0.30892181 10.4765625 -0.29296875 C11.51694672 -0.28872391 12.55733093 -0.28447906 13.62924194 -0.28010559 C16.96142147 -0.26327482 20.29300241 -0.22561422 23.625 -0.1875 C25.88019962 -0.17245887 28.13540869 -0.15876947 30.390625 -0.14648438 C35.92728855 -0.11335699 41.46360152 -0.0631142 47 0 C47 0.66 47 1.32 47 2 C31.49 2.33 15.98 2.66 0 3 C0 9.27 0 15.54 0 22 C-0.66 22.33 -1.32 22.66 -2 23 C-2.0580476 19.72924117 -2.09361165 16.45861476 -2.125 13.1875 C-2.14175781 12.25873047 -2.15851563 11.32996094 -2.17578125 10.37304688 C-2.18222656 9.48037109 -2.18867188 8.58769531 -2.1953125 7.66796875 C-2.20578613 6.84578857 -2.21625977 6.0236084 -2.22705078 5.17651367 C-2 3 -2 3 0 0 Z " fill="#322A35" transform="translate(427,626)"/>
<path d="M0 0 C-0.33 0.66 -0.66 1.32 -1 2 C-7.02823596 2.02495925 -13.05644098 2.04298121 -19.0847168 2.05493164 C-21.12996953 2.05992045 -23.17521878 2.06671389 -25.22045898 2.07543945 C-36.19329487 2.12103667 -47.07495758 2.15873641 -58 1 C-58 0.67 -58 0.34 -58 0 C-52.31175129 -0.17004594 -46.62333299 -0.33029329 -40.93457031 -0.48217773 C-39.00676381 -0.53494382 -37.07902367 -0.59020506 -35.15136719 -0.64819336 C-23.3581051 -1.00100947 -11.76312674 -1.01010374 0 0 Z " fill="#211A20" transform="translate(606,625)"/>
<path d="M0 0 C3.63 0 7.26 0 11 0 C11.33 0.99 11.66 1.98 12 3 C9.69 3.33 7.38 3.66 5 4 C5 4.99 5 5.98 5 7 C3.68 7 2.36 7 1 7 C1 8.32 1 9.64 1 11 C-1.64 11 -4.28 11 -7 11 C-7.33 10.34 -7.66 9.68 -8 9 C-2.375 5 -2.375 5 1 5 C0.67 3.35 0.34 1.7 0 0 Z " fill="#231F22" transform="translate(302,739)"/>
<path d="M0 0 C0.99 0 1.98 0 3 0 C3 0.99 3 1.98 3 3 C2.01 3 1.02 3 0 3 C0.00523682 3.8564209 0.01047363 4.7128418 0.01586914 5.59521484 C0.03306821 8.8194961 0.04552583 12.04375371 0.05493164 15.26806641 C0.05991293 16.65479306 0.06670039 18.04151459 0.07543945 19.42822266 C0.12398542 27.33835992 0.03835551 35.14502199 -1 43 C-1.33 43 -1.66 43 -2 43 C-2.04934656 37.19760386 -2.08569402 31.39532919 -2.10986328 25.59277344 C-2.11993627 23.61781691 -2.13359521 21.64287534 -2.15087891 19.66796875 C-2.17507039 16.83329582 -2.18646991 13.99881962 -2.1953125 11.1640625 C-2.20563507 10.27756012 -2.21595764 9.39105774 -2.22659302 8.47769165 C-2.2269907 6.31714048 -2.12272534 4.15706282 -2 2 C-1.34 1.34 -0.68 0.68 0 0 Z " fill="#161215" transform="translate(337,919)"/>
<path d="M0 0 C2.97 0.495 2.97 0.495 6 1 C6 1.66 6 2.32 6 3 C7.0725 3.12375 8.145 3.2475 9.25 3.375 C12.37863615 3.89643936 14.33480424 4.40088254 17 6 C17 6.99 17 7.98 17 9 C12.03926578 10.32286246 7.08888488 10.08893197 2 10 C2 9.34 2 8.68 2 8 C7.75 6.875 7.75 6.875 10 8 C10 7.34 10 6.68 10 6 C9.0925 5.71125 8.185 5.4225 7.25 5.125 C4.67797092 4.23468224 2.38653234 3.28505587 0 2 C0 1.34 0 0.68 0 0 Z " fill="#292728" transform="translate(709,914)"/>
<path d="M0 0 C3.04172719 -0.0271045 6.08320997 -0.04688964 9.125 -0.0625 C9.9809375 -0.07087891 10.836875 -0.07925781 11.71875 -0.08789062 C16.26678411 -0.10538306 20.52383164 0.06807642 25 1 C24.67 1.66 24.34 2.32 24 3 C15.75 3 7.5 3 -1 3 C-0.67 2.01 -0.34 1.02 0 0 Z " fill="#212222" transform="translate(863,621)"/>
<path d="M0 0 C0.33 1.65 0.66 3.3 1 5 C-5 9 -5 9 -9 9 C-10.6875 7 -10.6875 7 -12 5 C-10.68 4.67 -9.36 4.34 -8 4 C-8 3.01 -8 2.02 -8 1 C-5.23735711 0.40267181 -2.83967231 0 0 0 Z " fill="#090407" transform="translate(302,739)"/>
<path d="M0 0 C-0.33 0.66 -0.66 1.32 -1 2 C-10.57 2 -20.14 2 -30 2 C-29.67 1.34 -29.34 0.68 -29 0 C-19.72904892 -2.22580245 -9.40627252 -0.67261575 0 0 Z " fill="#120006" transform="translate(779,623)"/>
<path d="M0 0 C2.0625 0.4375 2.0625 0.4375 4 1 C3.67 1.66 3.34 2.32 3 3 C1.35 3 -0.3 3 -2 3 C-2 3.66 -2 4.32 -2 5 C-4.64 5 -7.28 5 -10 5 C-10 5.66 -10 6.32 -10 7 C-13.63 7.33 -17.26 7.66 -21 8 C-21 7.34 -21 6.68 -21 6 C-19.02 6 -17.04 6 -15 6 C-15 5.34 -15 4.68 -15 4 C-12.69 4 -10.38 4 -8 4 C-8 3.34 -8 2.68 -8 2 C-6.2984375 1.7834375 -6.2984375 1.7834375 -4.5625 1.5625 C-1.19222799 1.38828522 -1.19222799 1.38828522 0 0 Z " fill="#292729" transform="translate(902,629)"/>
<path d="M0 0 C2.46430239 3.69645358 2.29648824 6.53945599 2.25 10.8125 C2.25773437 11.51181641 2.26546875 12.21113281 2.2734375 12.93164062 C2.25702255 17.31853681 1.75358759 20.96798346 0 25 C-0.66 25.33 -1.32 25.66 -2 26 C-2.04254356 24.00045254 -2.04080783 21.99958364 -2 20 C-1.67 19.67 -1.34 19.34 -1 19 C-0.84379445 17.58672053 -0.74943827 16.1664541 -0.68359375 14.74609375 C-0.64169922 13.89208984 -0.59980469 13.03808594 -0.55664062 12.15820312 C-0.51732422 11.26037109 -0.47800781 10.36253906 -0.4375 9.4375 C-0.39431641 8.53580078 -0.35113281 7.63410156 -0.30664062 6.70507812 C-0.20021858 4.47021515 -0.09820012 2.23523692 0 0 Z " fill="#262022" transform="translate(359,651)"/>
<path d="M0 0 C-1.42150009 3.13152248 -3.13564224 5.58143518 -5.375 8.1875 C-5.96023438 8.88230469 -6.54546875 9.57710937 -7.1484375 10.29296875 C-9.17388661 12.16031318 -10.3976482 12.36325435 -13 13 C-13.33 13.99 -13.66 14.98 -14 16 C-14.66 16 -15.32 16 -16 16 C-14.95125002 13.37812506 -14.35068687 12.20628639 -11.875 10.75 C-11.25625 10.5025 -10.6375 10.255 -10 10 C-10 9.34 -10 8.68 -10 8 C-9.34 8 -8.68 8 -8 8 C-7.7525 7.4225 -7.505 6.845 -7.25 6.25 C-5.58207452 3.24773413 -3.67725381 0 0 0 Z " fill="#191919" transform="translate(423,865)"/>
<path d="M0 0 C0 0.66 0 1.32 0 2 C-2.9885165 3.6879584 -5.99113044 5.34862043 -9 7 C-9.73863281 7.41507813 -10.47726562 7.83015625 -11.23828125 8.2578125 C-11.92277344 8.62648438 -12.60726563 8.99515625 -13.3125 9.375 C-13.92738281 9.71273437 -14.54226563 10.05046875 -15.17578125 10.3984375 C-17.45938032 11.1514873 -18.75767176 10.7622926 -21 10 C-19.02 9.34 -17.04 8.68 -15 8 C-15 7.34 -15 6.68 -15 6 C-12.87717331 4.99539469 -10.75166979 3.99644398 -8.625 3 C-7.44164062 2.443125 -6.25828125 1.88625 -5.0390625 1.3125 C-2 0 -2 0 0 0 Z " fill="#343333" transform="translate(393,903)"/>
<path d="M0 0 C1.32 0.66 2.64 1.32 4 2 C2.68 2.33 1.36 2.66 0 3 C0 9.27 0 15.54 0 22 C-0.66 22.33 -1.32 22.66 -2 23 C-2.0580476 19.72924117 -2.09361165 16.45861476 -2.125 13.1875 C-2.14175781 12.25873047 -2.15851563 11.32996094 -2.17578125 10.37304688 C-2.18222656 9.48037109 -2.18867188 8.58769531 -2.1953125 7.66796875 C-2.20578613 6.84578857 -2.21625977 6.0236084 -2.22705078 5.17651367 C-2 3 -2 3 0 0 Z " fill="#221D1F" transform="translate(427,626)"/>
<path d="M0 0 C0.9796875 -0.01675781 1.959375 -0.03351562 2.96875 -0.05078125 C4.22171875 0.12904297 4.22171875 0.12904297 5.5 0.3125 C6.16 1.3025 6.82 2.2925 7.5 3.3125 C4.71398777 4.24117074 2.88933911 4.47592217 0 4.5 C-1.16015625 4.52126953 -1.16015625 4.52126953 -2.34375 4.54296875 C-4.5 4.3125 -4.5 4.3125 -7.5 2.3125 C-4.88826365 -0.29923635 -3.62801112 0.0143211 0 0 Z " fill="#2B2C2A" transform="translate(366.5,919.6875)"/>
<path d="M0 0 C0.33 0 0.66 0 1 0 C1.33 5.28 1.66 10.56 2 16 C1.01 16.33 0.02 16.66 -1 17 C-2.54236225 15.45763775 -2.16936074 14.01543321 -2.1875 11.875 C-2.15299853 7.56231637 -1.38536313 4.06950421 0 0 Z " fill="#292627" transform="translate(646,953)"/>
<path d="M0 0 C0.33 0.66 0.66 1.32 1 2 C1.66 2 2.32 2 3 2 C3 2.66 3 3.32 3 4 C5.33214148 5.20628008 7.49642139 6.1654738 10 7 C10 7.66 10 8.32 10 9 C10.66 9 11.32 9 12 9 C12 9.66 12 10.32 12 11 C10.68 10.67 9.36 10.34 8 10 C8 9.34 8 8.68 8 8 C7.38125 8.350625 6.7625 8.70125 6.125 9.0625 C5.42375 9.371875 4.7225 9.68125 4 10 C3.34 9.67 2.68 9.34 2 9 C2 8.34 2 7.68 2 7 C1.01 6.67 0.02 6.34 -1 6 C-0.34 5.67 0.32 5.34 1 5 C0.67 3.35 0.34 1.7 0 0 Z " fill="#1D1C17" transform="translate(693,890)"/>
<path d="M0 0 C0 0.66 0 1.32 0 2 C-1.32 2 -2.64 2 -4 2 C-4 2.66 -4 3.32 -4 4 C-4.99 4 -5.98 4 -7 4 C-7 4.66 -7 5.32 -7 6 C-8.24420647 6.5345256 -9.49570936 7.05208611 -10.75 7.5625 C-11.44609375 7.85253906 -12.1421875 8.14257812 -12.859375 8.44140625 C-15.30012784 9.07831803 -16.6403655 8.80248831 -19 8 C-14.375 5 -14.375 5 -11 5 C-11 4.34 -11 3.68 -11 3 C-9.68 3 -8.36 3 -7 3 C-7 2.34 -7 1.68 -7 1 C-4.50935112 0.31292445 -2.62113708 0 0 0 Z " fill="#2C232C" transform="translate(515,865)"/>
<path d="M0 0 C0.33 0 0.66 0 1 0 C2.10087193 7.01805857 2.09733092 13.90565767 2 21 C1.01 20.67 0.02 20.34 -1 20 C-1.11044961 13.26257354 -0.70132913 6.70019789 0 0 Z " fill="#292828" transform="translate(434,951)"/>
<path d="M0 0 C4.62 0 9.24 0 14 0 C14 0.99 14 1.98 14 3 C9.38 3 4.76 3 0 3 C0 2.01 0 1.02 0 0 Z " fill="#2F2830" transform="translate(322,751)"/>
<path d="M0 0 C1.32 0 2.64 0 4 0 C4 5.94 4 11.88 4 18 C3.34 18 2.68 18 2 18 C1.93941406 16.95199219 1.87882813 15.90398438 1.81640625 14.82421875 C1.73198262 13.44529952 1.64733553 12.06639395 1.5625 10.6875 C1.52318359 9.99720703 1.48386719 9.30691406 1.44335938 8.59570312 C1.25072585 5.52838465 0.97677283 2.93031848 0 0 Z " fill="#1E1A1B" transform="translate(741,919)"/>
<path d="M0 0 C3.86252257 0.75529526 7.20180367 2.39484772 10.75 4.0625 C11.92046875 4.61035156 13.0909375 5.15820312 14.296875 5.72265625 C15.18890625 6.14417969 16.0809375 6.56570313 17 7 C17 7.66 17 8.32 17 9 C14.69 8.67 12.38 8.34 10 8 C10 7.34 10 6.68 10 6 C8.68 6 7.36 6 6 6 C6 5.34 6 4.68 6 4 C4.02 3.34 2.04 2.68 0 2 C0 1.34 0 0.68 0 0 Z " fill="#2A272A" transform="translate(219,714)"/>
<path d="M0 0 C0.66 0 1.32 0 2 0 C1.46823005 4.13813705 -0.77932166 6.27082318 -3.5625 9.25 C-4.38878906 10.14203125 -5.21507812 11.0340625 -6.06640625 11.953125 C-6.70449219 12.62859375 -7.34257813 13.3040625 -8 14 C-8.33 13.34 -8.66 12.68 -9 12 C-8.401875 11.278125 -7.80375 10.55625 -7.1875 9.8125 C-5.2242398 7.28830832 -3.6304801 4.74217108 -2 2 C-1.34 1.34 -0.68 0.68 0 0 Z " fill="#231F21" transform="translate(684,735)"/>
<path d="M0 0 C0.99 0.33 1.98 0.66 3 1 C4.39439664 1.06665376 5.79169875 1.08538199 7.1875 1.0625 C8.445625 1.041875 9.70375 1.02125 11 1 C11 1.66 11 2.32 11 3 C11.99 3.33 12.98 3.66 14 4 C14 4.66 14 5.32 14 6 C15.32 6 16.64 6 18 6 C18 6.66 18 7.32 18 8 C15.525 7.505 15.525 7.505 13 7 C13 6.34 13 5.68 13 5 C11.4221875 5.0928125 11.4221875 5.0928125 9.8125 5.1875 C5.81612976 4.9909572 4.13100094 4.39429484 1 2 C0.67 1.34 0.34 0.68 0 0 Z " fill="#242021" transform="translate(702,910)"/>
<path d="M0 0 C3.63 0 7.26 0 11 0 C11.33 0.99 11.66 1.98 12 3 C8.04 3 4.08 3 0 3 C0 2.01 0 1.02 0 0 Z " fill="#2A242A" transform="translate(302,739)"/>
<path d="M0 0 C0 0.66 0 1.32 0 2 C-0.99 2 -1.98 2 -3 2 C-3 2.66 -3 3.32 -3 4 C-9.5 7 -9.5 7 -14 7 C-14 6.34 -14 5.68 -14 5 C-12.68 5 -11.36 5 -10 5 C-10 4.34 -10 3.68 -10 3 C-9.01 3 -8.02 3 -7 3 C-7 2.34 -7 1.68 -7 1 C-4.50935112 0.31292445 -2.62113708 0 0 0 Z " fill="#494348" transform="translate(792,670)"/>
<path d="M0 0 C0.33 0.99 0.66 1.98 1 3 C-0.26257233 4.17560179 -1.53537084 5.34022865 -2.8125 6.5 C-3.87404297 7.47453125 -3.87404297 7.47453125 -4.95703125 8.46875 C-7 10 -7 10 -10 10 C-10 10.66 -10 11.32 -10 12 C-10.66 12 -11.32 12 -12 12 C-10.25 8.125 -10.25 8.125 -8 7 C-7.67 6.01 -7.34 5.02 -7 4 C-6.01 4.33 -5.02 4.66 -4 5 C-2.68 3.35 -1.36 1.7 0 0 Z " fill="#1C1A1C" transform="translate(466,891)"/>
<path d="M0 0 C0.66 0 1.32 0 2 0 C2 3.96 2 7.92 2 12 C1.01 12 0.02 12 -1 12 C-1.14285714 3.42857143 -1.14285714 3.42857143 0 0 Z " fill="#181718" transform="translate(420,737)"/>
<path d="M0 0 C-1.65 0.33 -3.3 0.66 -5 1 C-5 1.66 -5 2.32 -5 3 C-6.32 3 -7.64 3 -9 3 C-9 3.66 -9 4.32 -9 5 C-10.98 5.33 -12.96 5.66 -15 6 C-15 5.34 -15 4.68 -15 4 C-14.01 4 -13.02 4 -12 4 C-12 3.34 -12 2.68 -12 2 C-10.68 2 -9.36 2 -8 2 C-8 1.34 -8 0.68 -8 0 C-4.94736336 -0.98120464 -3.05263664 -0.98120464 0 0 Z " fill="#3F383F" transform="translate(817,660)"/>
<path d="M0 0 C2.1640625 -0.29296875 2.1640625 -0.29296875 4.625 -0.1875 C5.44226563 -0.16042969 6.25953125 -0.13335938 7.1015625 -0.10546875 C8.04128906 -0.05326172 8.04128906 -0.05326172 9 0 C9 0.99 9 1.98 9 3 C5.37 3 1.74 3 -2 3 C-1.34 2.01 -0.68 1.02 0 0 Z " fill="#312E2E" transform="translate(501,951)"/>
<path d="M0 0 C-0.99 0.33 -1.98 0.66 -3 1 C-3 1.66 -3 2.32 -3 3 C-7.455 4.485 -7.455 4.485 -12 6 C-12 5.34 -12 4.68 -12 4 C-11.01 4 -10.02 4 -9 4 C-9 3.34 -9 2.68 -9 2 C-8.34 2 -7.68 2 -7 2 C-7 1.34 -7 0.68 -7 0 C-3.98968256 -0.93423645 -3.13349732 -1.04449911 0 0 Z " fill="#4C424B" transform="translate(759,689)"/>
<path d="M0 0 C1.32 0.33 2.64 0.66 4 1 C3 3 3 3 1.0390625 3.8515625 C0.24242187 4.10679687 -0.55421875 4.36203125 -1.375 4.625 C-2.16648437 4.88539063 -2.95796875 5.14578125 -3.7734375 5.4140625 C-6 6 -6 6 -9 6 C-9 5.01 -9 4.02 -9 3 C-4.545 2.505 -4.545 2.505 0 2 C0 1.34 0 0.68 0 0 Z " fill="#383939" transform="translate(827,653)"/>
<path d="M0 0 C0.66 0 1.32 0 2 0 C3.28317892 3.84953676 3.06643637 6.94738135 3 11 C2.34 11 1.68 11 1 11 C-0.20272819 8.59454362 -0.10071472 7.05003047 -0.0625 4.375 C-0.05347656 3.55773437 -0.04445313 2.74046875 -0.03515625 1.8984375 C-0.02355469 1.27195312 -0.01195312 0.64546875 0 0 Z " fill="#201420" transform="translate(431,928)"/>
<path d="M0 0 C0.66 0 1.32 0 2 0 C1.45245041 3.92410537 0.86033262 7.47515924 -1 11 C-3.125 12.3125 -3.125 12.3125 -5 13 C-4.67 11.35 -4.34 9.7 -4 8 C-3.34 8 -2.68 8 -2 8 C-2 6.68 -2 5.36 -2 4 C-1.34 4 -0.68 4 0 4 C0 2.68 0 1.36 0 0 Z " fill="#292727" transform="translate(439,836)"/>
<path d="M0 0 C0 0.66 0 1.32 0 2 C-4.95 2.33 -9.9 2.66 -15 3 C-12.623045 0.623045 -11.31588099 0.44788865 -8.0625 -0.1875 C-7.18722656 -0.36667969 -6.31195312 -0.54585937 -5.41015625 -0.73046875 C-3 -1 -3 -1 0 0 Z " fill="#1D1719" transform="translate(719,920)"/>
<path d="M0 0 C2.0625 0.4375 2.0625 0.4375 4 1 C3.67 1.66 3.34 2.32 3 3 C1.35 3 -0.3 3 -2 3 C-2 3.66 -2 4.32 -2 5 C-2.99 5 -3.98 5 -5 5 C-5 4.34 -5 3.68 -5 3 C-5.99 3.33 -6.98 3.66 -8 4 C-8 3.34 -8 2.68 -8 2 C-6.865625 1.855625 -5.73125 1.71125 -4.5625 1.5625 C-1.19222799 1.38828522 -1.19222799 1.38828522 0 0 Z " fill="#313031" transform="translate(902,629)"/>
<path d="M0 0 C0 1.32 0 2.64 0 4 C-2.31 4 -4.62 4 -7 4 C-7 3.01 -7 2.02 -7 1 C-4 0 -4 0 0 0 Z " fill="#3D393E" transform="translate(288,734)"/>
<path d="M0 0 C2.97 0.495 2.97 0.495 6 1 C6 1.66 6 2.32 6 3 C6.804375 3.12375 7.60875 3.2475 8.4375 3.375 C9.7059375 3.684375 9.7059375 3.684375 11 4 C11.33 4.66 11.66 5.32 12 6 C7.61110675 5.33501617 4.0188515 3.81242323 0 2 C0 1.34 0 0.68 0 0 Z " fill="#484646" transform="translate(709,914)"/>
<path d="M0 0 C0.66 0.33 1.32 0.66 2 1 C0.71520959 2.50589388 -0.57804082 4.00457375 -1.875 5.5 C-2.95394531 6.75296875 -2.95394531 6.75296875 -4.0546875 8.03125 C-4.69664062 8.6809375 -5.33859375 9.330625 -6 10 C-6.66 10 -7.32 10 -8 10 C-6.34908222 5.70761377 -3.26245434 3.1206085 0 0 Z " fill="#1A171B" transform="translate(444,910)"/>
<path d="M0 0 C2.53125 -0.3984375 2.53125 -0.3984375 5.5 -0.375 C6.4796875 -0.38273438 7.459375 -0.39046875 8.46875 -0.3984375 C9.72171875 -0.20121094 9.72171875 -0.20121094 11 0 C11.66 0.99 12.32 1.98 13 3 C12.01 3 11.02 3 10 3 C10 2.34 10 1.68 10 1 C3.93735778 1.66264086 3.93735778 1.66264086 -2 3 C-1.34 2.01 -0.68 1.02 0 0 Z " fill="#1B1C1B" transform="translate(361,920)"/>
<path d="M0 0 C3.5875213 1.33250791 6.8364623 2.830717 10 5 C10 5.66 10 6.32 10 7 C8.68 6.67 7.36 6.34 6 6 C6 5.34 6 4.68 6 4 C5.01 4 4.02 4 3 4 C3 3.34 3 2.68 3 2 C2.01 2 1.02 2 0 2 C0 1.34 0 0.68 0 0 Z " fill="#312C31" transform="translate(179,699)"/>
<path d="M0 0 C3.63 0 7.26 0 11 0 C10.67 0.99 10.34 1.98 10 3 C8.35 3 6.7 3 5 3 C5 2.67 5 2.34 5 2 C3.35 1.67 1.7 1.34 0 1 C0 0.67 0 0.34 0 0 Z " fill="#121413" transform="translate(882,621)"/>
<path d="M0 0 C0.99 0 1.98 0 3 0 C3 0.99 3 1.98 3 3 C2.01 3 1.02 3 0 3 C0 4.65 0 6.3 0 8 C-0.66 7.34 -1.32 6.68 -2 6 C-1.44444444 1.44444444 -1.44444444 1.44444444 0 0 Z " fill="#2D282B" transform="translate(337,919)"/>
<path d="M0 0 C1.32 0 2.64 0 4 0 C4 0.66 4 1.32 4 2 C-1.41538462 5.07692308 -1.41538462 5.07692308 -4.375 4.6875 C-4.91125 4.460625 -5.4475 4.23375 -6 4 C-4.02 3.34 -2.04 2.68 0 2 C0 1.34 0 0.68 0 0 Z " fill="#3E403F" transform="translate(378,909)"/>
<path d="M0 0 C0.66 0.33 1.32 0.66 2 1 C2 2.98 2 4.96 2 7 C1.01 7.495 1.01 7.495 0 8 C-0.66 7.34 -1.32 6.68 -2 6 C-1.64644564 3.73725212 -1.02455574 2.04911148 0 0 Z " fill="#0F100E" transform="translate(663,786)"/>
<path d="M0 0 C0 0.66 0 1.32 0 2 C-1.65 2 -3.3 2 -5 2 C-5 2.66 -5 3.32 -5 4 C-5.99 4 -6.98 4 -8 4 C-8.33 3.01 -8.66 2.02 -9 1 C-5.846632 0.29925156 -3.27275026 0 0 0 Z " fill="#393638" transform="translate(845,648)"/>
<path d="M0 0 C-2.96687001 1.64826111 -5.65626525 2.44271087 -9 3 C-8.67 2.01 -8.34 1.02 -8 0 C-5.13822943 -1.43088528 -3.06624227 -0.59991697 0 0 Z " fill="#232324" transform="translate(376,914)"/>
<path d="M0 0 C2.31 0 4.62 0 7 0 C7 0.66 7 1.32 7 2 C5.02 2.66 3.04 3.32 1 4 C0.67 2.68 0.34 1.36 0 0 Z " fill="#121013" transform="translate(358,753)"/>
<path d="M0 0 C0.66 0 1.32 0 2 0 C2 0.66 2 1.32 2 2 C3.32 2.33 4.64 2.66 6 3 C5.67 3.66 5.34 4.32 5 5 C3.35 5 1.7 5 0 5 C0 3.35 0 1.7 0 0 Z " fill="#2C242C" transform="translate(265,730)"/>
<path d="M0 0 C0 0.66 0 1.32 0 2 C-0.66 2 -1.32 2 -2 2 C-2 2.66 -2 3.32 -2 4 C-3.98 4.33 -5.96 4.66 -8 5 C-8 4.34 -8 3.68 -8 3 C-7.01 3 -6.02 3 -5 3 C-5 2.34 -5 1.68 -5 1 C-2 0 -2 0 0 0 Z " fill="#3E3C3C" transform="translate(770,681)"/>
<path d="M0 0 C0.66 0 1.32 0 2 0 C1.75 1.875 1.75 1.875 1 4 C-1.0625 5.25 -1.0625 5.25 -3 6 C-2.42655063 3.13275314 -2.1385485 2.1385485 0 0 Z " fill="#2E2D2E" transform="translate(684,735)"/>
<path d="M0 0 C0.66 0 1.32 0 2 0 C0.9024777 2.99324263 0.32317108 3.84610901 -2.625 5.25 C-3.40875 5.4975 -4.1925 5.745 -5 6 C-4.67 4.68 -4.34 3.36 -4 2 C-2.68 2 -1.36 2 0 2 C0 1.34 0 0.68 0 0 Z " fill="#423B43" transform="translate(734,702)"/>
<path d="" fill="#000000" transform="translate(0,0)"/>
</svg>
